<?xml version="1.0" standalone="no"?>
<!DOCTYPE svg PUBLIC "-//W3C//DTD SVG 1.1//EN" "http://www.w3.org/Graphics/SVG/1.1/DTD/svg11.dtd" >
<svg xmlns="http://www.w3.org/2000/svg" xmlns:xlink="http://www.w3.org/1999/xlink" version="1.1">
<metadata></metadata>
<defs>
<font id="museo_sans_cyrl700" horiz-adv-x="1224" >
<font-face units-per-em="2048" ascent="1536" descent="-512" />
<missing-glyph horiz-adv-x="522" />
<glyph unicode="&#xfb01;" horiz-adv-x="1290" d="M69 855v210h132v31q0 100 31 174.5t77 115.5t109.5 66t113.5 32t103 7q59 0 90 -6v-225q-16 4 -55 4q-207 0 -206 -174v-25h685v-1065h-264v855h-421v-855h-263v855h-132zM883 1247v236h266v-236h-266z" />
<glyph unicode="&#xfb02;" horiz-adv-x="1336" d="M71 839v212h132v45q0 100 32 174.5t78 115.5t110 66t113.5 32t103.5 7q58 0 89 -6v-225q-16 4 -54 4q-207 0 -207 -174v-39h230v-212h-230v-839h-265v839h-132zM875 333v1150h263v-1111q0 -83 26 -115t83 -32q26 0 40 2v-231q-56 -6 -83 -6q-65 0 -115.5 11t-103 44 t-81.5 106t-29 182z" />
<glyph horiz-adv-x="0" />
<glyph unicode="&#xd;" horiz-adv-x="694" />
<glyph unicode=" "  horiz-adv-x="522" />
<glyph unicode="&#x09;" horiz-adv-x="522" />
<glyph unicode="&#xa0;" horiz-adv-x="522" />
<glyph unicode="!" horiz-adv-x="600" d="M163 1483h274l-21 -1055h-232zM171 0v249h257v-249h-257z" />
<glyph unicode="&#x22;" horiz-adv-x="820" d="M144 1074v437h199v-437h-199zM480 1074v437h197v-437h-197z" />
<glyph unicode="#" horiz-adv-x="1493" d="M82 391l33 189h248l53 293h-247l32 192h246l73 418h213l-73 -418h285l72 418h213l-72 -418h252l-33 -192h-251l-52 -293h248l-31 -189h-249l-69 -391h-213l69 391h-286l-67 -391h-213l67 391h-248zM576 580h285l52 293h-287z" />
<glyph unicode="$" d="M111 177l144 203q71 -67 172 -112t197 -45q92 0 155 47t63 133q0 69 -73 122t-176.5 96t-207 95.5t-176.5 144.5t-73 217q0 161 108.5 276t283.5 143v197h178v-192q217 -16 368 -153l-117 -219q-65 56 -154 93t-173 37q-96 0 -160.5 -50t-64.5 -128q0 -56 52.5 -103.5 t130.5 -77.5t170.5 -74t170.5 -90.5t130.5 -131.5t52.5 -196q0 -165 -108.5 -284t-297.5 -143v-193h-178v193q-258 28 -417 195z" />
<glyph unicode="%" horiz-adv-x="1670" d="M90 1178q0 136 99.5 233.5t240.5 97.5q140 0 241.5 -97.5t101.5 -233.5q0 -138 -100.5 -234t-242 -96t-241 96t-99.5 234zM142 0l1138 1483h245l-1138 -1483h-245zM293 1178q0 -58 39.5 -98t98 -40t99 40t40.5 98q0 56 -40.5 97t-99 41t-98 -41t-39.5 -97zM901 303 q0 136 99 233t241 97q140 0 240 -97t100 -233t-99 -232.5t-241 -96.5t-241 96.5t-99 232.5zM1103 305q0 -58 39.5 -98t98 -40t99.5 40t41 98q0 56 -41 97t-99.5 41t-98 -41t-39.5 -97z" />
<glyph unicode="&#x26;" horiz-adv-x="1428" d="M106 420q0 124 68.5 227t182.5 142v5q-86 39 -137 125t-51 199q0 188 133 289.5t338 101.5q83 0 193 -26l-64 -213q-44 12 -99 12q-100 0 -163.5 -52t-63.5 -146q0 -77 52.5 -137t170.5 -60h239v193h265v-193h192v-233h-192v-176q0 -229 -142.5 -366.5t-392.5 -137.5 q-235 0 -382 127t-147 319zM382 437q0 -92 70 -154t183 -62q130 0 200 69t70 203v161h-251q-128 0 -200 -55.5t-72 -161.5z" />
<glyph unicode="'" horiz-adv-x="490" d="M144 1074v437h201v-437h-201z" />
<glyph unicode="(" horiz-adv-x="642" d="M100 716q0 439 249 832h223q-235 -396 -235 -834q0 -472 235 -913h-223q-249 407 -249 915z" />
<glyph unicode=")" horiz-adv-x="642" d="M71 -199q236 441 236 913q0 437 -236 834h224q249 -392 248 -832q0 -508 -248 -915h-224z" />
<glyph unicode="*" horiz-adv-x="1033" d="M92 1086l71 226l253 -102l-19 273h241l-22 -273l255 102l74 -224l-266 -67v-4l176 -206l-193 -141l-144 231h-4l-142 -231l-192 139l175 208v4z" />
<glyph unicode="+" d="M52 493v207h454v494h215v-494h451v-207h-451v-493h-215v493h-454z" />
<glyph unicode="," horiz-adv-x="588" d="M52 -219l142 488h264l-203 -488h-203z" />
<glyph unicode="-" horiz-adv-x="901" d="M138 480v232h627v-232h-627z" />
<glyph unicode="." horiz-adv-x="540" d="M138 0v267h265v-267h-265z" />
<glyph unicode="/" horiz-adv-x="897" d="M69 -88l533 1647h227l-532 -1647h-228z" />
<glyph unicode="0" horiz-adv-x="1311" d="M117 743.5q0 167.5 28 301t89 240t167.5 165.5t254.5 59q536 0 536 -765q0 -168 -28 -301.5t-87.5 -242t-167 -167.5t-253.5 -59t-253.5 59t-168.5 167.5t-89 242t-28 301zM395 744q0 -523 261 -523t261 523q0 516 -261 516t-261 -516z" />
<glyph unicode="1" horiz-adv-x="1079" d="M94 1126l372 357h236v-1251h322v-232h-907v232h324v823l2 101h-4q-19 -36 -67 -84l-119 -113z" />
<glyph unicode="2" horiz-adv-x="1216" d="M108 132q0 108 39 202t99.5 162t134.5 126.5t148.5 108.5t135 98t99 103.5t38.5 114.5q0 93 -65 150t-161 57q-81 0 -152 -50.5t-115 -125.5l-201 134q72 129 197 213t295 84q203 0 342.5 -118.5t139.5 -320.5q0 -96 -36.5 -181t-95.5 -145.5t-130.5 -115t-142.5 -100.5 t-132 -90.5t-99.5 -96.5t-40.5 -109h700v-232h-984q-12 71 -13 132z" />
<glyph unicode="3" horiz-adv-x="1196" d="M80 173l137 207q62 -64 153.5 -107t185.5 -43q115 0 190 62.5t75 158.5q0 113 -88.5 171.5t-228.5 58.5h-103l-58 138l271 321q26 32 53 60t39 41l15 13v4q-46 -6 -131 -6h-444v231h905v-169l-361 -419q167 -24 284.5 -137.5t117.5 -295.5q0 -201 -141.5 -344.5 t-380.5 -143.5q-135 0 -266 52t-224 147z" />
<glyph unicode="4" horiz-adv-x="1292" d="M62 382v166l642 935h317v-877h193v-224h-193v-382h-265v382h-694zM347 606h409v459l11 155h-4q-34 -80 -73 -136l-343 -474v-4z" />
<glyph unicode="5" horiz-adv-x="1190" d="M92 175l140 203q135 -147 316 -148q113 0 195 69.5t82 182.5q0 116 -83.5 187t-213.5 71q-123 0 -229 -63l-151 54l69 752h782v-231h-548l-23 -245l-10 -69h4q62 34 158 33q238 0 380.5 -139.5t142.5 -347.5q0 -219 -152.5 -364.5t-382.5 -145.5q-136 0 -261 53t-215 148 z" />
<glyph unicode="6" horiz-adv-x="1260" d="M108 677q0 120 26.5 236.5t82.5 224t134.5 190t192.5 132t248 49.5q173 0 304 -64l-79 -231q-84 46 -210 46q-163 0 -263.5 -115t-129.5 -282h4q38 46 117 75t161 29q213 0 343.5 -144t130.5 -353t-135.5 -352.5t-351.5 -143.5q-242 0 -408.5 191t-166.5 512zM389 578 q0 -129 87.5 -243t208.5 -114q98 0 159 71t61 178q0 120 -72.5 198t-199.5 78q-102 0 -173 -45t-71 -123z" />
<glyph unicode="7" horiz-adv-x="1142" d="M80 1252v231h1019v-188l-650 -1295h-280l556 1116q21 42 42.5 75t32.5 45l11 16v4q-24 -4 -99 -4h-632z" />
<glyph unicode="8" horiz-adv-x="1273" d="M104 428q0 74 25.5 140.5t67 115.5t72 77t61.5 52q-155 119 -155 288t123.5 288.5t353.5 119.5q211 0 345.5 -111t134.5 -299t-165 -370q190 -121 191 -313q0 -179 -143.5 -310.5t-381.5 -131.5q-233 0 -381 131.5t-148 322.5zM380 449q0 -100 75 -168t178 -68 q107 0 178.5 60t71.5 153q0 40 -17.5 71t-62.5 62t-76 47t-104 47.5t-103 46.5q-140 -120 -140 -251zM441 1096q0 -23 5 -42.5t18.5 -39.5t23 -33.5t36 -30.5t39.5 -26t48 -26t48 -22t55.5 -24t52.5 -23q102 126 102 249q0 88 -61.5 139t-161.5 51q-96 0 -150.5 -48 t-54.5 -124z" />
<glyph unicode="9" horiz-adv-x="1260" d="M90 1011q0 209 135.5 353.5t352.5 144.5q243 0 408 -190.5t165 -514.5q0 -120 -26 -236.5t-82.5 -224t-135 -189t-192 -131t-247.5 -49.5q-175 2 -303 64l80 231q100 -48 208 -48q163 0 263.5 114t131.5 283h-4q-38 -46 -117 -75t-161 -29q-213 0 -344.5 145t-131.5 352z M357 1011q0 -120 72 -198t199 -78q100 0 172.5 47t72.5 115q0 139 -88.5 251t-204.5 112q-102 0 -162.5 -70t-60.5 -179z" />
<glyph unicode=":" horiz-adv-x="538" d="M138 0v265h263v-265h-263zM138 800v265h263v-265h-263z" />
<glyph unicode=";" horiz-adv-x="616" d="M82 -219l121 488h263l-181 -488h-203zM209 800v265h257v-265h-257z" />
<glyph unicode="&#x3c;" d="M82 512v171l1004 447v-231l-725 -299v-4l725 -299v-233z" />
<glyph unicode="=" d="M102 279v205h1020v-205h-1020zM102 708v205h1020v-205h-1020z" />
<glyph unicode="&#x3e;" d="M136 64v233l725 299v4l-725 299v231l1004 -447v-171z" />
<glyph unicode="?" horiz-adv-x="1008" d="M73 1362q160 150 393 151q186 0 321.5 -108t135.5 -285q0 -96 -37.5 -173.5t-91.5 -127.5t-107.5 -95t-91 -99.5t-37.5 -114.5v-82h-255v100q0 84 35.5 153t85.5 115t100 88.5t86 96t36 113.5q0 74 -59 124t-144 50q-116 0 -222 -88zM301 0v249h257v-249h-257z" />
<glyph unicode="@" horiz-adv-x="1702" d="M108 502q0 325 227 551.5t560 226.5q298 0 436 -127t138 -328v-522h152v-190h-579q-203 0 -325.5 115t-122.5 274q0 157 121.5 269t326.5 112h178q-2 82 -91 133.5t-226 51.5q-224 0 -379 -169.5t-155 -396.5q0 -236 156 -398t413 -162v-207q-367 0 -598.5 219 t-231.5 548zM859 508q0 -86 55 -145.5t145 -59.5h161v409h-157q-92 0 -148 -59t-56 -145z" />
<glyph unicode="A" horiz-adv-x="1357" d="M16 0l521 1483h284l520 -1483h-276l-127 380h-520l-125 -380h-277zM484 600h387l-131 397l-59 229h-4q-33 -146 -59 -229z" />
<glyph unicode="B" horiz-adv-x="1321" d="M180 0v1483h528q207 0 333.5 -101.5t126.5 -280.5q0 -104 -48 -188t-132 -130v-4q118 -33 179 -131t61 -218q0 -211 -146 -320.5t-366 -109.5h-536zM449 232h288q100 0 158 59.5t58 155.5q0 94 -58 153.5t-158 59.5h-288v-428zM449 877h261q86 0 135.5 53.5t49.5 137.5 q0 82 -49.5 133t-139.5 51h-257v-375z" />
<glyph unicode="C" horiz-adv-x="1495" d="M94 748q0 325 215 543t548 218q338 0 547 -203l-130 -201q-82 69 -191.5 113t-213.5 44q-234 0 -365.5 -146.5t-131.5 -363.5q0 -220 134 -375.5t365 -155.5q238 0 431 188l141 -194q-235 -241 -582 -241q-345 0 -556 219.5t-211 554.5z" />
<glyph unicode="D" horiz-adv-x="1539" d="M180 0v1483h505q347 0 551.5 -196.5t204.5 -543t-204.5 -545t-551.5 -198.5h-505zM449 232h221q230 0 362 132.5t132 379.5q0 242 -132.5 375t-361.5 133h-221v-1020z" />
<glyph unicode="E" horiz-adv-x="1186" d="M180 0v1483h888v-231h-619v-389h500v-233h-500v-398h652v-232h-921z" />
<glyph unicode="F" horiz-adv-x="1092" d="M180 0v1483h852v-231h-583v-421h491v-231h-491v-600h-269z" />
<glyph unicode="G" horiz-adv-x="1599" d="M94 744q0 323 218 544t547 221q334 0 551 -189l-134 -200q-69 62 -179.5 102t-215.5 40q-240 0 -374.5 -146.5t-134.5 -363.5q0 -236 142 -383.5t355 -147.5q211 0 372 155v174h-228v231h470v-781h-229v71l2 63h-4q-74 -72 -189.5 -116t-241.5 -44q-303 0 -515 214.5 t-212 555.5z" />
<glyph unicode="H" horiz-adv-x="1574" d="M180 0v1483h269v-628h679v628h267v-1483h-267v622h-679v-622h-269z" />
<glyph unicode="I" horiz-adv-x="628" d="M180 0v1483h269v-1483h-269z" />
<glyph unicode="J" horiz-adv-x="1140" d="M50 439v85h267v-69q0 -100 48.5 -167t146.5 -67q86 0 140 54.5t54 167.5v809h-385v231h652v-1044q0 -228 -136.5 -346.5t-324.5 -118.5q-190 0 -326 119.5t-136 345.5z" />
<glyph unicode="K" horiz-adv-x="1332" d="M180 0v1483h269v-604h193l348 604h292l-419 -706v-4l445 -773h-305l-361 648h-193v-648h-269z" />
<glyph unicode="L" horiz-adv-x="1118" d="M180 0v1483h269v-1251h641v-232h-910z" />
<glyph unicode="M" horiz-adv-x="1796" d="M123 0l122 1483h285l293 -733l74 -218h4q39 130 72 218l293 733h286l121 -1483h-269l-61 829q-4 44 -4 101.5t2 93.5v35h-4q-48 -144 -81 -230l-241 -574h-234l-240 574l-81 232h-5q3 -57 3 -108q0 -68 -5 -124l-60 -829h-270z" />
<glyph unicode="N" horiz-adv-x="1572" d="M180 0v1483h269l562 -857q25 -40 55 -97t50 -94l18 -38h4q-14 142 -14 229v857h267v-1483h-267l-562 855q-25 40 -55.5 97t-48.5 95l-19 37h-4q14 -142 14 -229v-855h-269z" />
<glyph unicode="O" horiz-adv-x="1716" d="M92 752q0 321 216 539t550 218t550.5 -217.5t216.5 -539.5q0 -331 -216.5 -554.5t-550.5 -223.5t-550 223.5t-216 554.5zM369 752q0 -228 139.5 -379.5t350.5 -151.5t349.5 151.5t138.5 379.5q0 217 -138.5 363.5t-349.5 146.5t-350.5 -146.5t-139.5 -363.5z" />
<glyph unicode="P" horiz-adv-x="1284" d="M180 0v1483h572q209 0 340.5 -133.5t131.5 -349t-131.5 -352t-340.5 -136.5h-303v-512h-269zM449 746h253q117 0 183 68.5t66 186.5q0 115 -66 183t-179 68h-257v-506z" />
<glyph unicode="Q" horiz-adv-x="1716" d="M92 750q0 321 217 540t550 219q334 0 550 -217.5t216 -541.5q0 -259 -162 -471l166 -149l-154 -172l-163 163q-194 -145 -453 -147q-333 0 -550 223.5t-217 552.5zM369 750q0 -226 140.5 -377.5t349.5 -151.5q150 0 259 80l-165 154l152 169l161 -160q81 128 81 286 q0 219 -139.5 365.5t-348.5 146.5t-349.5 -146.5t-140.5 -365.5z" />
<glyph unicode="R" horiz-adv-x="1336" d="M180 0v1483h488q188 0 281 -40q117 -48 184 -152.5t67 -252.5q0 -135 -67.5 -247t-181.5 -158v-5q18 -23 48 -76l305 -552h-303l-293 554h-259v-554h-269zM449 787h243q108 0 170.5 64t62.5 173q0 155 -116 202q-56 26 -163 26h-197v-465z" />
<glyph unicode="S" horiz-adv-x="1162" d="M73 177l146 203q74 -64 173 -110.5t194 -46.5q100 0 159 47t59 123q0 77 -71 133t-172 98t-203.5 92.5t-173.5 142.5t-71 219q0 192 143 311.5t362 119.5q261 0 435 -160l-120 -219q-62 56 -150.5 93t-174.5 37q-102 0 -164 -46t-62 -124q0 -75 71 -129t172.5 -94 t203.5 -89t173.5 -140.5t71.5 -223.5q0 -188 -131.5 -314t-362.5 -126q-141 0 -275 53t-232 150z" />
<glyph unicode="T" horiz-adv-x="1298" d="M30 1252v231h1240v-231h-487v-1252h-267v1252h-486z" />
<glyph unicode="U" horiz-adv-x="1519" d="M163 532v951h269v-949q0 -147 89 -230t239.5 -83t239 83t88.5 230v949h270v-951q0 -248 -164 -403t-431 -155q-269 0 -434.5 155t-165.5 403z" />
<glyph unicode="V" horiz-adv-x="1369" d="M10 1483h291l325 -967l57 -217h4q30 131 57 217l330 967h286l-535 -1483h-279z" />
<glyph unicode="W" horiz-adv-x="1996" d="M48 1483h282l230 -1025l24 -157h6q8 71 30 157l265 1025h227l263 -1025l31 -157h4q4 73 23 157l247 1025h277l-384 -1483h-303l-232 877l-37 195h-7q-14 -98 -39 -195l-230 -877h-307z" />
<glyph unicode="X" horiz-adv-x="1298" d="M28 0l459 752l-443 731h307l205 -363l92 -182h4q42 94 92 182l207 363h307l-445 -731l461 -752h-301l-231 399l-92 175h-4q-42 -90 -90 -175l-231 -399h-297z" />
<glyph unicode="Y" horiz-adv-x="1265" d="M4 1483h305l232 -436l89 -199h5q44 106 90 199l230 436h305l-493 -863v-620h-268v620z" />
<glyph unicode="Z" horiz-adv-x="1273" d="M75 0v173l658 945q26 38 53 71t41 47l15 16v4q-42 -4 -111 -4h-623v231h1072v-171l-658 -947q-25 -38 -52 -71t-42 -47l-14 -15v-5q42 5 110 5h666v-232h-1115z" />
<glyph unicode="[" horiz-adv-x="670" d="M167 -199v1747h411v-192h-185v-1362h185v-193h-411z" />
<glyph unicode="\" horiz-adv-x="897" d="M69 1559h228l532 -1647h-227z" />
<glyph unicode="]" horiz-adv-x="670" d="M92 -6h185v1362h-185v192h412v-1747h-412v193z" />
<glyph unicode="^" horiz-adv-x="1292" d="M136 512l420 971h167l419 -971h-229l-273 692l-275 -692h-229z" />
<glyph unicode="_" horiz-adv-x="1263" d="M46 0h1172v-205h-1172v205z" />
<glyph unicode="`" horiz-adv-x="1029" d="M299 1866h273l159 -285h-215z" />
<glyph unicode="a" horiz-adv-x="1120" d="M60 295q0 113 62 192t163.5 116t196 51t199.5 14h46v15q0 188 -201 188q-146 0 -296 -102l-98 190q69 54 186 92.5t232 38.5q209 0 325.5 -111.5t116.5 -312.5v-666h-246v90l6 77h-4q-50 -85 -140 -139t-197 -54q-148 0 -249.5 89.5t-101.5 231.5zM323 317q0 -56 43 -98 t118 -42q107 0 176 88t69 193v29h-46q-360 0 -360 -170z" />
<glyph unicode="b" horiz-adv-x="1282" d="M142 0v1483h265v-462l-6 -90h4q46 72 134.5 115.5t187.5 43.5q215 0 344 -154.5t129 -403.5q0 -250 -137.5 -404t-352.5 -154q-96 0 -183.5 44t-137.5 122h-4q4 -30 4 -71v-69h-247zM399 526q0 -133 70 -230t195 -97q115 0 191 88.5t76 240.5q0 150 -73 242.5t-190 92.5 q-115 0 -192 -84.5t-77 -252.5z" />
<glyph unicode="c" horiz-adv-x="1144" d="M78 532q0 234 159.5 396t418.5 162q115 0 225.5 -39.5t183.5 -119.5l-118 -181q-116 115 -277 115q-144 0 -233.5 -95t-89.5 -235t91.5 -237t240.5 -97q174 0 313 136l102 -189q-75 -80 -193 -127t-245 -47q-259 0 -418.5 160.5t-159.5 397.5z" />
<glyph unicode="d" horiz-adv-x="1282" d="M82 532q0 251 134.5 404.5t347.5 153.5q211 0 311 -139h4q-4 27 -4 62v470h263v-1483h-249v92l6 67h-6q-47 -84 -136 -134.5t-199 -50.5q-213 0 -342.5 155t-129.5 403zM349 532q0 -150 73 -241.5t192 -91.5q113 0 190 84t77 251q0 134 -68.5 231.5t-196.5 97.5 q-113 0 -190 -89t-77 -242z" />
<glyph unicode="e" horiz-adv-x="1170" d="M78 532q0 247 151 402.5t391 155.5q222 0 347 -143t125 -363q0 -35 -8 -102h-733q12 -133 102 -207t217 -74q159 0 305 116l105 -189q-79 -72 -195 -113t-233 -41q-257 0 -415.5 162.5t-158.5 395.5zM357 664h470q-2 104 -61.5 164.5t-151.5 60.5q-100 0 -169.5 -61.5 t-87.5 -163.5z" />
<glyph unicode="f" horiz-adv-x="743" d="M71 839v212h132v45q0 100 32 174.5t78 115.5t110 66t113.5 32t103.5 7q58 0 89 -6v-225q-16 4 -54 4q-207 0 -207 -174v-39h230v-212h-230v-839h-265v839h-132z" />
<glyph unicode="g" horiz-adv-x="1265" d="M84 559.5q0 229.5 124.5 380t345.5 150.5q217 0 317 -139h6q-4 12 -4 29v85h251v-1001q0 -131 -48 -231t-129.5 -157.5t-179 -86t-205.5 -28.5q-203 0 -380 92l81 203q142 -69 295 -69q134 0 217.5 62.5t83.5 196.5v67l4 56h-4q-98 -148 -299 -149q-221 0 -348.5 155 t-127.5 384.5zM351 568q0 -144 70 -233.5t197 -89.5q106 0 176.5 73t70.5 240q0 307 -263 307q-120 0 -185.5 -80.5t-65.5 -216.5z" />
<glyph unicode="h" horiz-adv-x="1278" d="M142 0v1483h265v-518l-6 -90h4q44 86 143.5 150.5t226.5 64.5q373 0 371 -405v-685h-265v630q0 106 -36 162t-131 56q-138 0 -222.5 -99t-84.5 -254v-495h-265z" />
<glyph unicode="i" horiz-adv-x="548" d="M142 0v1065h265v-1065h-265zM142 1247v236h265v-236h-265z" />
<glyph unicode="j" horiz-adv-x="548" d="M-117 -203q25 -4 46 -4q35 0 67 7.5t67 25t57 61t22 103.5v1075h265v-1097q0 -102 -33 -178.5t-80 -116.5t-112 -65.5t-116.5 -32.5t-103.5 -7q-40 0 -79 6v223zM142 1247v236h265v-236h-265z" />
<glyph unicode="k" horiz-adv-x="1146" d="M142 0v1483h265v-793h132l257 375h294l-336 -475v-6l378 -584h-305l-281 466h-139v-466h-265z" />
<glyph unicode="l" horiz-adv-x="602" d="M142 333v1150h263v-1111q0 -83 26.5 -115t82.5 -32q26 0 40 2v-231q-56 -6 -84 -6q-64 0 -114.5 11t-102.5 44t-81.5 106t-29.5 182z" />
<glyph unicode="m" horiz-adv-x="1904" d="M142 0v1065h255v-125l-4 -75h4q42 88 136.5 156.5t212.5 68.5q242 0 309 -219h4q48 90 146.5 154.5t217.5 64.5q349 0 349 -405v-685h-263v635q0 102 -32 157.5t-115 55.5q-130 0 -201 -110t-71 -260v-478h-265v635q0 102 -29 157.5t-115 55.5q-129 0 -201.5 -112 t-72.5 -258v-478h-265z" />
<glyph unicode="n" horiz-adv-x="1278" d="M142 0v1065h255v-125l-4 -75h4q42 86 137.5 155.5t240.5 69.5q373 0 371 -405v-685h-265v630q0 106 -36 162t-131 56q-138 0 -222.5 -100t-84.5 -249v-499h-265z" />
<glyph unicode="o" horiz-adv-x="1323" d="M78 533q0 242 169 399.5t413 157.5q247 0 417 -157.5t170 -399.5t-169 -400.5t-415.5 -158.5t-415.5 158.5t-169 400.5zM347 532q0 -145 90.5 -238t224.5 -93t226 93t92 238q0 144 -93 238.5t-225 94.5t-223.5 -94.5t-91.5 -238.5z" />
<glyph unicode="p" horiz-adv-x="1282" d="M142 -418v1483h243v-79l-5 -75h5q52 86 142.5 132.5t199.5 46.5q215 0 344 -154.5t129 -403.5q0 -250 -137.5 -404t-350.5 -154q-190 0 -307 151h-4q6 -37 6 -91v-452h-265zM399 526q0 -133 71 -230t194 -97q115 0 191 88.5t76 240.5q0 150 -73 242.5t-190 92.5 q-115 0 -192 -84.5t-77 -252.5z" />
<glyph unicode="q" horiz-adv-x="1282" d="M82 532q0 251 134.5 404.5t347.5 153.5q98 0 185.5 -40.5t139.5 -116.5h6q-5 28 -6 68v64h249v-1483h-263v462l4 92h-4q-48 -72 -133.5 -117t-187.5 -45q-213 0 -342.5 155t-129.5 403zM349 532q0 -150 73 -241.5t192 -91.5q113 0 190 84t77 251q0 134 -68.5 231.5 t-196.5 97.5q-113 0 -190 -89t-77 -242z" />
<glyph unicode="r" horiz-adv-x="827" d="M142 0v1065h255v-188l-4 -73h4q38 117 129.5 196.5t208.5 79.5q17 0 50 -4v-261q-20 4 -64 4q-155 0 -234.5 -112.5t-79.5 -276.5v-430h-265z" />
<glyph unicode="s" horiz-adv-x="953" d="M56 132l119 175q128 -117 303 -117q72 0 110 28.5t38 78.5q0 46 -54 79t-131.5 60.5t-155.5 64t-132.5 105.5t-54.5 165q0 150 116 234.5t292 84.5q221 0 359 -121l-98 -186q-46 40 -122.5 66t-147.5 26q-148 0 -148 -102q0 -46 54.5 -79.5t132.5 -60.5t155.5 -61.5 t131.5 -103.5t54 -165q0 -142 -110.5 -235.5t-292.5 -93.5q-255 0 -418 158z" />
<glyph unicode="t" horiz-adv-x="778" d="M56 839v212h145v305h259v-305h242v-212h-242v-415q0 -115 66 -158t144 -43q28 0 49 4v-231q-62 -6 -81 -6q-55 0 -105.5 7t-115 32t-111.5 66t-79.5 117.5t-32.5 178.5v448h-138z" />
<glyph unicode="u" horiz-adv-x="1267" d="M132 380v685h265v-630q0 -107 36.5 -162.5t128.5 -55.5q138 0 218.5 104.5t80.5 254.5v489h263v-1065h-255v125l6 74h-4q-42 -90 -142.5 -157.5t-226.5 -67.5q-370 2 -370 406z" />
<glyph unicode="v" horiz-adv-x="1138" d="M28 1065h279l221 -660l38 -160h4q19 98 38 160l221 660h280l-382 -1065h-313z" />
<glyph unicode="w" horiz-adv-x="1735" d="M40 1065h279l187 -700l20 -112h4q11 56 26 112l196 698h236l196 -698l24 -112h4q6 56 22 112l187 700h275l-323 -1065h-295l-179 608l-28 115h-4q-10 -58 -25 -115l-182 -608h-297z" />
<glyph unicode="x" horiz-adv-x="1083" d="M32 0l350 539l-342 526h301l165 -290l33 -67h4q20 40 35 67l166 290h300l-342 -526l353 -539h-297l-184 309l-31 56h-4q-15 -33 -29 -56l-185 -309h-293z" />
<glyph unicode="y" horiz-adv-x="1138" d="M8 1065h299l223 -614l40 -144h4q19 84 36 140l209 618h288l-474 -1226q-52 -140 -155.5 -209t-228.5 -69q-56 0 -111.5 17t-83.5 33l-26 20l87 198q58 -44 117 -44q127 0 186 137l40 94z" />
<glyph unicode="z" horiz-adv-x="1094" d="M73 0v142l481 600q20 27 43 51t33 34l14 12v5q-32 -5 -101 -5h-449v226h907v-144l-479 -600q-20 -27 -43.5 -50.5t-35.5 -36.5l-13 -11v-4q32 6 100 6h485v-225h-942z" />
<glyph unicode="{" horiz-adv-x="774" d="M78 568v232q83 12 130 69.5t47 151.5v181q0 89 28 157t67 104t94 57t95.5 27.5t84.5 6.5l66 -2v-196q-17 2 -38 2q-28 0 -52 -6.5t-53 -23t-47 -54.5t-18 -94v-227q0 -94 -46.5 -165.5t-126.5 -100.5v-4q173 -64 173 -263v-251q0 -177 170 -177l38 2v-197q-28 -4 -66 -4 q-44 0 -84.5 6.5t-95.5 27t-94 57t-67 104.5t-28 160v203q0 90 -45 147.5t-132 69.5z" />
<glyph unicode="|" horiz-adv-x="550" d="M163 -337v2000h226v-2000h-226z" />
<glyph unicode="}" horiz-adv-x="774" d="M86 -6q14 -2 37 -2q170 0 170 177v251q0 92 44.5 165t126.5 98v4q-71 26 -121 98t-50 168v227q0 56 -18 94t-47 54.5t-53.5 23t-51.5 6.5l-37 -2v196q25 2 64 2q56 0 108.5 -11.5t117.5 -44.5t103.5 -109.5t38.5 -186.5v-181q0 -88 46 -149t132 -72v-232 q-82 -8 -130 -68.5t-48 -148.5v-203q0 -92 -28 -160t-66.5 -103t-93.5 -57t-95.5 -28.5t-84.5 -6.5l-64 4v197z" />
<glyph unicode="~" horiz-adv-x="1296" d="M130 416q0 381 319 380q71 0 130 -29.5t91 -66t74.5 -65.5t88.5 -29q68 0 99 52t31 129h211q0 -189 -82.5 -284.5t-236.5 -95.5q-72 0 -129.5 29.5t-89.5 65t-77 65t-91 29.5q-62 0 -94.5 -51.5t-32.5 -128.5h-211z" />
<glyph unicode="&#xa1;" horiz-adv-x="558" d="M142 -420l21 1055h232l21 -1055h-274zM150 815v248h257v-248h-257z" />
<glyph unicode="&#xa2;" d="M102 741.5q0 227.5 122.5 391.5t321.5 198v176h179v-176q138 -25 242.5 -115t154.5 -224l-239 -91q-75 185 -241 185q-122 0 -197.5 -97.5t-75.5 -246.5q0 -158 73.5 -251.5t199.5 -93.5q167 0 241 185l239 -91q-52 -128 -153.5 -224t-243.5 -112v-181h-179v181 q-199 34 -321.5 196.5t-122.5 390z" />
<glyph unicode="&#xa3;" d="M98 0v232h121v418h-89v181h89v253q0 184 135 304.5t342 120.5q211 0 372 -151l-153 -184q-94 90 -213 90q-92 0 -150.5 -53t-58.5 -135v-245h370v-181h-370v-418h651v-232h-1046z" />
<glyph unicode="&#xa5;" d="M18 1483h307l195 -397l90 -238h4q42 123 90 238l195 397h307l-323 -606h205v-158h-286l-54 -101v-68h340v-161h-340v-389h-274v389h-340v161h340v68l-52 101h-288v158h207z" />
<glyph unicode="&#xa7;" horiz-adv-x="999" d="M92 -2l113 179q102 -91 236 -91q93 0 154 53t61 158q0 50 -18 119l-141 674h209l149 -718q14 -58 14 -119q0 -169 -113.5 -276t-314.5 -107q-209 0 -349 128zM132 1126q0 169 113.5 276t314.5 107q209 0 349 -130l-120 -169q-97 81 -227 81q-96 0 -155.5 -48.5 t-59.5 -148.5q0 -47 14 -104l145 -701h-207l-153 718q-14 56 -14 119z" />
<glyph unicode="&#xa8;" horiz-adv-x="1029" d="M221 1623v243h205v-243h-205zM606 1623v243h203v-243h-203z" />
<glyph unicode="&#xa9;" horiz-adv-x="1706" d="M104 741.5q0 317.5 218.5 541.5t528.5 224q315 0 533 -224t218 -541q0 -320 -219 -544t-532 -224q-309 0 -528 225t-219 542.5zM291 741.5q0 -250.5 161.5 -424t398.5 -173.5q240 0 404 173.5t164 424t-164.5 423t-403.5 172.5q-236 0 -398 -172.5t-162 -423zM470 737.5 q0 169.5 112 288t279 118.5q113 0 204 -59t137 -160l-162 -74q-20 50 -68.5 85t-104.5 35q-90 0 -147.5 -68t-57.5 -166q0 -102 55.5 -167.5t149.5 -65.5q56 0 102 34t71 86l162 -72q-38 -92 -130 -157t-211 -65q-169 0 -280 119t-111 288.5z" />
<glyph unicode="&#xaa;" horiz-adv-x="893" d="M142 1005q0 229 386 229h20v16q0 108 -122 108q-81 0 -171 -56l-67 123q104 79 267 79q136 0 208 -72t72 -200v-419h-175v92h-4q-24 -46 -75.5 -75.5t-115.5 -29.5q-90 0 -156.5 55.5t-66.5 149.5zM144 556v142h598v-142h-598zM330 1017q0 -32 23 -51t61 -19 q56 0 94 45.5t38 103.5v16h-24q-192 0 -192 -95z" />
<glyph unicode="&#xab;" horiz-adv-x="1248" d="M84 590l342 429h253l-342 -429l342 -429h-253zM554 590l343 429h252l-342 -429l342 -429h-252z" />
<glyph unicode="&#xac;" horiz-adv-x="1302" d="M130 708v205h1021v-614h-215v409h-806z" />
<glyph unicode="&#xad;" horiz-adv-x="901" d="M138 480v232h627v-232h-627z" />
<glyph unicode="&#xae;" horiz-adv-x="1706" d="M104 741.5q0 317.5 218.5 541.5t528.5 224q315 0 533 -224t218 -541q0 -320 -219 -544t-532 -224q-309 0 -528 225t-219 542.5zM291 741.5q0 -250.5 161.5 -424t398.5 -173.5q240 0 404 173.5t164 424t-164.5 423t-403.5 172.5q-236 0 -398 -172.5t-162 -423zM590 363 v765h317q115 0 183 -65.5t68 -177.5q0 -81 -43 -133t-94 -65v-4q8 -8 28 -43l143 -277h-195l-128 283h-102v-283h-177zM767 771h98q52 0 81 30t29 84.5t-28 84t-78 29.5h-102v-228z" />
<glyph unicode="&#xaf;" horiz-adv-x="1029" d="M243 1636v182h546v-182h-546z" />
<glyph unicode="&#xb0;" horiz-adv-x="877" d="M98 1180q0 136 99.5 233.5t241.5 97.5q139 0 240.5 -97.5t101.5 -233.5q0 -138 -100.5 -232.5t-242 -94.5t-241 94.5t-99.5 232.5zM301 1180q0 -58 39.5 -98t98 -40t99 40t40.5 98q0 56 -40.5 97t-99 41t-98 -41t-39.5 -97z" />
<glyph unicode="&#xb1;" d="M52 493v207h454v494h215v-494h451v-207h-451v-493h-215v493h-454zM82 -177h1060v-205h-1060v205z" />
<glyph unicode="&#xb4;" horiz-adv-x="1029" d="M299 1581l159 285h273l-219 -285h-213z" />
<glyph unicode="&#xb5;" horiz-adv-x="1280" d="M163 -418v1483h265v-630q0 -107 35.5 -162.5t128.5 -55.5q139 0 218 104.5t79 254.5v489h267v-1065h-255v130l4 67h-6l-12 -24t-39 -53.5t-68.5 -67t-104.5 -54t-145 -24.5q-98 0 -150 44h-4q17 -102 17 -173v-263h-230z" />
<glyph unicode="&#xb6;" horiz-adv-x="1307" d="M75 994.5q0 205.5 144 347t347 141.5h638v-231h-446v-1356h-192v608q-203 0 -347 142.5t-144 348zM887 -104v1240h195v-1240h-195z" />
<glyph unicode="&#xb7;" horiz-adv-x="532" d="M138 476v268h257v-268h-257z" />
<glyph unicode="&#xb8;" horiz-adv-x="1029" d="M339 -273q33 -17 89 -18q92 0 92 59q0 57 -100 57l-44 -5l65 232l121 -26v-16l-23 -102q69 -8 111 -48t42 -111q0 -96 -65 -140t-161 -44q-69 0 -127 15v147z" />
<glyph unicode="&#xba;" horiz-adv-x="1002" d="M134 1156q0 150 106.5 249t258.5 99q157 0 263.5 -98t106.5 -250.5t-106.5 -253t-261 -100.5t-261 100.5t-106.5 253.5zM165 556v142h674v-142h-674zM323 1156q0 -82 51.5 -134.5t127.5 -52.5q73 0 124 52.5t51 134.5q0 79 -51.5 131t-123.5 52q-76 0 -127.5 -52.5 t-51.5 -130.5z" />
<glyph unicode="&#xbb;" horiz-adv-x="1248" d="M100 161l343 429l-343 429h253l343 -429l-343 -429h-253zM568 161l343 429l-343 429h253l343 -429l-343 -429h-253z" />
<glyph unicode="&#xbf;" horiz-adv-x="991" d="M75 -56q0 96 37.5 173t91 127.5t107.5 95.5t92 99t38 115v81h255v-101q0 -83 -36 -152t-86 -115t-100 -88.5t-85.5 -95.5t-35.5 -115q0 -73 58.5 -123t144.5 -50q115 0 221 88l148 -182q-159 -150 -393 -150q-185 0 -321 107.5t-136 285.5zM441 815v248h257v-248h-257z " />
<glyph unicode="&#xc0;" horiz-adv-x="1357" d="M16 0l521 1483h284l520 -1483h-276l-127 380h-520l-125 -380h-277zM359 1866h274l159 -285h-216zM484 600h387l-131 397l-59 229h-4q-33 -146 -59 -229z" />
<glyph unicode="&#xc1;" horiz-adv-x="1357" d="M16 0l521 1483h284l520 -1483h-276l-127 380h-520l-125 -380h-277zM484 600h387l-131 397l-59 229h-4q-33 -146 -59 -229zM564 1581l159 285h274l-220 -285h-213z" />
<glyph unicode="&#xc2;" horiz-adv-x="1357" d="M16 0l521 1483h284l520 -1483h-276l-127 380h-520l-125 -380h-277zM353 1581l193 285h265l194 -285h-220l-104 169h-4l-105 -169h-219zM484 600h387l-131 397l-59 229h-4q-33 -146 -59 -229z" />
<glyph unicode="&#xc3;" horiz-adv-x="1357" d="M16 0l521 1483h284l520 -1483h-276l-127 380h-520l-125 -380h-277zM299 1583q0 287 233 287q61 0 108 -35t85 -68t71 -33q81 0 81 130h180q0 -287 -234 -287q-60 0 -107.5 34.5t-84.5 68t-71 33.5q-80 0 -80 -130h-181zM484 600h387l-131 397l-59 229h-4 q-33 -146 -59 -229z" />
<glyph unicode="&#xc4;" horiz-adv-x="1357" d="M16 0l521 1483h284l520 -1483h-276l-127 380h-520l-125 -380h-277zM385 1623v243h205v-243h-205zM484 600h387l-131 397l-59 229h-4q-33 -146 -59 -229zM769 1623v243h202v-243h-202z" />
<glyph unicode="&#xc5;" horiz-adv-x="1357" d="M16 0l521 1483h284l520 -1483h-276l-127 380h-520l-125 -380h-277zM480 1720q0 77 59 120.5t140 43.5q80 0 138 -44t58 -120t-58 -119.5t-138 -43.5q-81 0 -140 43.5t-59 119.5zM484 600h387l-131 397l-59 229h-4q-33 -146 -59 -229zM608 1720q0 -32 19 -52t52 -20 q32 0 51.5 20t19.5 52q0 33 -20 52.5t-51 19.5t-51 -20t-20 -52z" />
<glyph unicode="&#xc6;" horiz-adv-x="1890" d="M4 0l614 1483h1158v-231h-620v-389h498v-233h-498v-398h651v-232h-920v635h-355l-247 -635h-281zM618 855h269v397h-110z" />
<glyph unicode="&#xc7;" horiz-adv-x="1495" d="M94 748q0 325 215 543t548 218q338 0 547 -203l-130 -201q-82 69 -191.5 113t-213.5 44q-234 0 -365.5 -146.5t-131.5 -363.5q0 -220 134 -375.5t365 -155.5q238 0 431 188l141 -194q-221 -223 -544 -238l-16 -69q70 -8 111.5 -48t41.5 -111q0 -96 -64.5 -140t-160.5 -44 q-69 0 -128 15v147q34 -17 90 -18q92 0 92 59q0 57 -100 57l-44 -5l44 160q-305 31 -488 245t-183 523z" />
<glyph unicode="&#xc8;" horiz-adv-x="1186" d="M180 0v1483h888v-231h-619v-389h500v-233h-500v-398h652v-232h-921zM325 1866h275l158 -285h-215z" />
<glyph unicode="&#xc9;" horiz-adv-x="1186" d="M180 0v1483h888v-231h-619v-389h500v-233h-500v-398h652v-232h-921zM528 1581l159 285h274l-219 -285h-214z" />
<glyph unicode="&#xca;" horiz-adv-x="1186" d="M180 0v1483h888v-231h-619v-389h500v-233h-500v-398h652v-232h-921zM317 1581l193 285h265l194 -285h-219l-104 169h-4l-105 -169h-220z" />
<glyph unicode="&#xcb;" horiz-adv-x="1186" d="M180 0v1483h888v-231h-619v-389h500v-233h-500v-398h652v-232h-921zM351 1623v243h205v-243h-205zM735 1623v243h203v-243h-203z" />
<glyph unicode="&#xcc;" horiz-adv-x="628" d="M-2 1866h273l159 -285h-215zM180 0v1483h269v-1483h-269z" />
<glyph unicode="&#xcd;" horiz-adv-x="628" d="M180 0v1483h269v-1483h-269zM203 1581l158 285h274l-219 -285h-213z" />
<glyph unicode="&#xce;" horiz-adv-x="628" d="M-8 1581l192 285h265l195 -285h-220l-105 169h-4l-104 -169h-219zM180 0v1483h269v-1483h-269z" />
<glyph unicode="&#xcf;" horiz-adv-x="628" d="M23 1623v243h204v-243h-204zM180 0v1483h269v-1483h-269zM407 1623v243h203v-243h-203z" />
<glyph unicode="&#xd0;" horiz-adv-x="1551" d="M71 628v220h121v635h506q346 0 551 -196.5t205 -543t-205 -545t-551 -198.5h-506v628h-121zM460 232h223q230 0 361.5 132.5t131.5 379.5q0 242 -132.5 375t-360.5 133h-223v-404h275v-220h-275v-396z" />
<glyph unicode="&#xd1;" horiz-adv-x="1572" d="M180 0v1483h269l562 -857q25 -40 55 -97t50 -94l18 -38h4q-14 142 -14 229v857h267v-1483h-267l-562 855q-25 40 -55.5 97t-48.5 95l-19 37h-4q14 -142 14 -229v-855h-269zM407 1583q0 287 235 287q60 0 107 -35t84.5 -68t71.5 -33q81 0 81 130h180q0 -287 -235 -287 q-60 0 -107 34.5t-84.5 68t-71.5 33.5q-79 0 -78 -130h-183z" />
<glyph unicode="&#xd2;" horiz-adv-x="1716" d="M92 752q0 321 216 539t550 218t550.5 -217.5t216.5 -539.5q0 -331 -216.5 -554.5t-550.5 -223.5t-550 223.5t-216 554.5zM369 752q0 -228 139.5 -379.5t350.5 -151.5t349.5 151.5t138.5 379.5q0 217 -138.5 363.5t-349.5 146.5t-350.5 -146.5t-139.5 -363.5zM539 1866 h274l158 -285h-215z" />
<glyph unicode="&#xd3;" horiz-adv-x="1716" d="M92 752q0 321 216 539t550 218t550.5 -217.5t216.5 -539.5q0 -331 -216.5 -554.5t-550.5 -223.5t-550 223.5t-216 554.5zM369 752q0 -228 139.5 -379.5t350.5 -151.5t349.5 151.5t138.5 379.5q0 217 -138.5 363.5t-349.5 146.5t-350.5 -146.5t-139.5 -363.5zM744 1581 l159 285h273l-219 -285h-213z" />
<glyph unicode="&#xd4;" horiz-adv-x="1716" d="M92 752q0 321 216 539t550 218t550.5 -217.5t216.5 -539.5q0 -331 -216.5 -554.5t-550.5 -223.5t-550 223.5t-216 554.5zM369 752q0 -228 139.5 -379.5t350.5 -151.5t349.5 151.5t138.5 379.5q0 217 -138.5 363.5t-349.5 146.5t-350.5 -146.5t-139.5 -363.5zM532 1581 l193 285h265l194 -285h-219l-104 169h-4l-105 -169h-220z" />
<glyph unicode="&#xd5;" horiz-adv-x="1716" d="M92 752q0 321 216 539t550 218t550.5 -217.5t216.5 -539.5q0 -331 -216.5 -554.5t-550.5 -223.5t-550 223.5t-216 554.5zM369 752q0 -228 139.5 -379.5t350.5 -151.5t349.5 151.5t138.5 379.5q0 217 -138.5 363.5t-349.5 146.5t-350.5 -146.5t-139.5 -363.5zM478 1583 q0 287 234 287q60 0 107.5 -35t85 -68t70.5 -33q82 0 82 130h179q0 -287 -233 -287q-61 0 -108 34.5t-84.5 68t-70.5 33.5q-80 0 -80 -130h-182z" />
<glyph unicode="&#xd6;" horiz-adv-x="1716" d="M92 752q0 321 216 539t550 218t550.5 -217.5t216.5 -539.5q0 -331 -216.5 -554.5t-550.5 -223.5t-550 223.5t-216 554.5zM369 752q0 -228 139.5 -379.5t350.5 -151.5t349.5 151.5t138.5 379.5q0 217 -138.5 363.5t-349.5 146.5t-350.5 -146.5t-139.5 -363.5zM564 1623 v243h205v-243h-205zM949 1623v243h202v-243h-202z" />
<glyph unicode="&#xd8;" horiz-adv-x="1714" d="M92 750q0 319 220 539t547 220q205 0 379 -97l93 125l118 -81l-89 -125q125 -106 195 -256t70 -325q0 -329 -220.5 -552.5t-545.5 -223.5q-219 0 -399 110l-99 -138l-118 82l100 141q-251 228 -251 581zM369 750q1 -213 133 -361l584 813q-108 60 -227 60 q-205 0 -347.5 -146.5t-142.5 -365.5zM610 293q113 -72 249 -72q205 0 346.5 151.5t141.5 377.5q0 219 -143 364z" />
<glyph unicode="&#xd9;" horiz-adv-x="1519" d="M163 532v951h269v-949q0 -147 89 -230t239.5 -83t239 83t88.5 230v949h270v-951q0 -248 -164 -403t-431 -155q-269 0 -434.5 155t-165.5 403zM441 1866h273l159 -285h-215z" />
<glyph unicode="&#xda;" horiz-adv-x="1519" d="M163 532v951h269v-949q0 -147 89 -230t239.5 -83t239 83t88.5 230v949h270v-951q0 -248 -164 -403t-431 -155q-269 0 -434.5 155t-165.5 403zM646 1581l158 285h274l-219 -285h-213z" />
<glyph unicode="&#xdb;" horiz-adv-x="1519" d="M163 532v951h269v-949q0 -147 89 -230t239.5 -83t239 83t88.5 230v949h270v-951q0 -248 -164 -403t-431 -155q-269 0 -434.5 155t-165.5 403zM435 1581l191 285h265l195 -285h-219l-104 169h-5l-104 -169h-219z" />
<glyph unicode="&#xdc;" horiz-adv-x="1519" d="M163 532v951h269v-949q0 -147 89 -230t239.5 -83t239 83t88.5 230v949h270v-951q0 -248 -164 -403t-431 -155q-269 0 -434.5 155t-165.5 403zM466 1623v243h204v-243h-204zM851 1623v243h202v-243h-202z" />
<glyph unicode="&#xdd;" horiz-adv-x="1265" d="M4 1483h305l232 -436l89 -199h5q44 106 90 199l230 436h305l-493 -863v-620h-268v620zM518 1581l159 285h274l-220 -285h-213z" />
<glyph unicode="&#xde;" horiz-adv-x="1286" d="M180 0v1483h269v-240h303q209 0 340.5 -134t131.5 -348.5t-131.5 -351t-342.5 -136.5h-301v-273h-269zM449 506h253q117 0 183 69t66 185.5t-65 183.5t-180 67h-257v-505z" />
<glyph unicode="&#xdf;" horiz-adv-x="1256" d="M142 0v1105q0 187 144 295.5t340 108.5q182 0 306.5 -103.5t124.5 -261.5q0 -64 -29 -120.5t-64 -88.5t-64 -75t-29 -83t52 -85.5t116 -87.5t116.5 -117.5t52.5 -165.5q0 -161 -109 -248t-268 -87q-173 0 -281 54v225q115 -54 242 -54q64 0 106 30t42 96q0 45 -53.5 94 t-116 89t-115.5 107t-53 144q0 54 29 107t64.5 88t64.5 81.5t29 92.5q0 58 -45.5 100t-125.5 42q-90 0 -150.5 -49t-60.5 -147v-1086h-265z" />
<glyph unicode="&#xe0;" horiz-adv-x="1120" d="M60 295q0 113 62 192t163.5 116t196 51t199.5 14h46v15q0 188 -201 188q-146 0 -296 -102l-98 190q69 54 186 92.5t232 38.5q209 0 325.5 -111.5t116.5 -312.5v-666h-246v90l6 77h-4q-50 -85 -140 -139t-197 -54q-148 0 -249.5 89.5t-101.5 231.5zM241 1483h273l158 -283 h-214zM323 317q0 -56 43 -98t118 -42q107 0 176 88t69 193v29h-46q-360 0 -360 -170z" />
<glyph unicode="&#xe1;" horiz-adv-x="1120" d="M60 295q0 113 62 192t163.5 116t196 51t199.5 14h46v15q0 188 -201 188q-146 0 -296 -102l-98 190q69 54 186 92.5t232 38.5q209 0 325.5 -111.5t116.5 -312.5v-666h-246v90l6 77h-4q-50 -85 -140 -139t-197 -54q-148 0 -249.5 89.5t-101.5 231.5zM323 317q0 -56 43 -98 t118 -42q107 0 176 88t69 193v29h-46q-360 0 -360 -170zM441 1200l159 283h273l-219 -283h-213z" />
<glyph unicode="&#xe2;" horiz-adv-x="1120" d="M60 295q0 113 62 192t163.5 116t196 51t199.5 14h46v15q0 188 -201 188q-146 0 -296 -102l-98 190q69 54 186 92.5t232 38.5q209 0 325.5 -111.5t116.5 -312.5v-666h-246v90l6 77h-4q-50 -85 -140 -139t-197 -54q-148 0 -249.5 89.5t-101.5 231.5zM230 1200l192 283h265 l194 -283h-219l-104 168h-4l-105 -168h-219zM323 317q0 -56 43 -98t118 -42q107 0 176 88t69 193v29h-46q-360 0 -360 -170z" />
<glyph unicode="&#xe3;" horiz-adv-x="1120" d="M60 295q0 113 62 192t163.5 116t196 51t199.5 14h46v15q0 188 -201 188q-146 0 -296 -102l-98 190q69 54 186 92.5t232 38.5q209 0 325.5 -111.5t116.5 -312.5v-666h-246v90l6 77h-4q-50 -85 -140 -139t-197 -54q-148 0 -249.5 89.5t-101.5 231.5zM177 1202 q0 286 234 285q48 0 89 -21t63.5 -47t53.5 -46.5t58 -20.5q82 0 81 129h180q0 -287 -234 -287q-48 0 -89 21t-64 47.5t-53 47.5t-57 21q-80 0 -80 -129h-182zM323 317q0 -56 43 -98t118 -42q107 0 176 88t69 193v29h-46q-360 0 -360 -170z" />
<glyph unicode="&#xe4;" horiz-adv-x="1120" d="M60 295q0 113 62 192t163.5 116t196 51t199.5 14h46v15q0 188 -201 188q-146 0 -296 -102l-98 190q69 54 186 92.5t232 38.5q209 0 325.5 -111.5t116.5 -312.5v-666h-246v90l6 77h-4q-50 -85 -140 -139t-197 -54q-148 0 -249.5 89.5t-101.5 231.5zM263 1241v242h205v-242 h-205zM323 317q0 -56 43 -98t118 -42q107 0 176 88t69 193v29h-46q-360 0 -360 -170zM648 1241v242h203v-242h-203z" />
<glyph unicode="&#xe5;" horiz-adv-x="1120" d="M60 295q0 113 62 192t163.5 116t196 51t199.5 14h46v15q0 188 -201 188q-146 0 -296 -102l-98 190q69 54 186 92.5t232 38.5q209 0 325.5 -111.5t116.5 -312.5v-666h-246v90l6 77h-4q-50 -85 -140 -139t-197 -54q-148 0 -249.5 89.5t-101.5 231.5zM323 317q0 -56 43 -98 t118 -42q107 0 176 88t69 193v29h-46q-360 0 -360 -170zM357 1337q0 78 58.5 121.5t140.5 43.5q79 0 137.5 -44t58.5 -121q0 -75 -58.5 -119t-137.5 -44q-82 0 -140.5 44t-58.5 119zM484 1337q0 -31 19 -51t53 -20q32 0 51 20t19 51q0 34 -20 53.5t-51 19.5t-51 -20t-20 -53 z" />
<glyph unicode="&#xe6;" horiz-adv-x="1794" d="M60 307q0 361 632 361h35v15q0 188 -207 188q-146 0 -293 -102l-97 188q69 58 182.5 95.5t226.5 37.5q248 0 346 -157h4q128 157 356 157q218 0 344 -144t126 -364q0 -18 -3.5 -53.5t-3.5 -44.5h-728q12 -137 99 -210t214 -73q168 0 307 114l102 -187q-75 -70 -194 -112 t-234 -42q-305 0 -445 235h-4q-12 -27 -36 -58.5t-71.5 -74t-124.5 -71t-169 -28.5q-153 0 -258.5 90t-105.5 240zM328 319q0 -58 41.5 -97.5t121.5 -39.5q102 0 171 88.5t69 193.5v20h-75q-84 0 -150.5 -11t-122 -51.5t-55.5 -102.5zM988 668h459q-2 98 -61.5 156.5 t-142.5 58.5q-102 0 -168 -56.5t-87 -158.5z" />
<glyph unicode="&#xe7;" horiz-adv-x="1144" d="M78 532q0 234 159.5 396t418.5 162q115 0 225.5 -39.5t183.5 -119.5l-118 -181q-116 115 -277 115q-144 0 -233.5 -95t-89.5 -235t91.5 -237t240.5 -97q174 0 313 136l102 -189q-71 -76 -178 -120t-226 -51l-15 -69q70 -8 111 -48t41 -111q0 -96 -64.5 -140t-160.5 -44 q-70 0 -128 15v147q34 -17 90 -18q92 0 92 59q0 57 -100 57l-44 -5l44 164q-217 29 -347.5 182t-130.5 366z" />
<glyph unicode="&#xe8;" horiz-adv-x="1170" d="M78 532q0 247 151 402.5t391 155.5q222 0 347 -143t125 -363q0 -35 -8 -102h-733q12 -133 102 -207t217 -74q159 0 305 116l105 -189q-79 -72 -195 -113t-233 -41q-257 0 -415.5 162.5t-158.5 395.5zM299 1483h273l159 -283h-215zM357 664h470q-2 104 -61.5 164.5 t-151.5 60.5q-100 0 -169.5 -61.5t-87.5 -163.5z" />
<glyph unicode="&#xe9;" horiz-adv-x="1170" d="M78 532q0 247 151 402.5t391 155.5q222 0 347 -143t125 -363q0 -35 -8 -102h-733q12 -133 102 -207t217 -74q159 0 305 116l105 -189q-79 -72 -195 -113t-233 -41q-257 0 -415.5 162.5t-158.5 395.5zM357 664h470q-2 104 -61.5 164.5t-151.5 60.5q-100 0 -169.5 -61.5 t-87.5 -163.5zM499 1200l159 283h273l-219 -283h-213z" />
<glyph unicode="&#xea;" horiz-adv-x="1170" d="M78 532q0 247 151 402.5t391 155.5q222 0 347 -143t125 -363q0 -35 -8 -102h-733q12 -133 102 -207t217 -74q159 0 305 116l105 -189q-79 -72 -195 -113t-233 -41q-257 0 -415.5 162.5t-158.5 395.5zM289 1200l191 283h266l194 -283h-219l-105 168h-4l-104 -168h-219z M357 664h470q-2 104 -61.5 164.5t-151.5 60.5q-100 0 -169.5 -61.5t-87.5 -163.5z" />
<glyph unicode="&#xeb;" horiz-adv-x="1170" d="M78 532q0 247 151 402.5t391 155.5q222 0 347 -143t125 -363q0 -35 -8 -102h-733q12 -133 102 -207t217 -74q159 0 305 116l105 -189q-79 -72 -195 -113t-233 -41q-257 0 -415.5 162.5t-158.5 395.5zM321 1241v242h205v-242h-205zM357 664h470q-2 104 -61.5 164.5 t-151.5 60.5q-100 0 -169.5 -61.5t-87.5 -163.5zM706 1241v242h203v-242h-203z" />
<glyph unicode="&#xec;" horiz-adv-x="548" d="M-42 1483h274l159 -283h-216zM142 0v1065h265v-1065h-265z" />
<glyph unicode="&#xed;" horiz-adv-x="548" d="M142 0v1065h265v-1065h-265zM161 1200l158 283h275l-220 -283h-213z" />
<glyph unicode="&#xee;" horiz-adv-x="548" d="M-50 1200l192 283h265l195 -283h-220l-105 168h-4l-104 -168h-219zM142 0v1065h265v-1065h-265z" />
<glyph unicode="&#xef;" horiz-adv-x="548" d="M-16 1241v242h204v-242h-204zM142 0v1065h265v-1065h-265zM367 1241v242h203v-242h-203z" />
<glyph unicode="&#xf0;" horiz-adv-x="1216" d="M80 495q0 197 132.5 336.5t357.5 139.5q58 0 111.5 -15.5t78.5 -30.5l23 -14h4q-56 131 -195 221l-387 -167l-13 157l232 102q-102 50 -240 84l73 209q259 -56 453 -174l307 132l13 -155l-184 -82q286 -251 286 -658q0 -113 -30 -216t-91.5 -192.5t-170.5 -143.5 t-250 -54q-232 0 -371 155t-139 366zM349 489q0 -120 63.5 -205t183.5 -85q133 0 201 100t68 233q0 102 -67 167.5t-180 65.5q-129 0 -199 -80.5t-70 -195.5z" />
<glyph unicode="&#xf1;" horiz-adv-x="1278" d="M142 0v1065h255v-125l-4 -75h4q42 86 137.5 155.5t240.5 69.5q373 0 371 -405v-685h-265v630q0 106 -36 162t-131 56q-138 0 -222.5 -100t-84.5 -249v-499h-265zM277 1202q0 286 235 285q48 0 89 -21t63.5 -47t53 -46.5t57.5 -20.5q82 0 82 129h179q0 -287 -234 -287 q-48 0 -89 21t-64 47.5t-53 47.5t-57 21q-80 0 -79 -129h-183z" />
<glyph unicode="&#xf2;" horiz-adv-x="1323" d="M78 533q0 242 169 399.5t413 157.5q247 0 417 -157.5t170 -399.5t-169 -400.5t-415.5 -158.5t-415.5 158.5t-169 400.5zM343 1483h273l159 -283h-215zM347 532q0 -145 90.5 -238t224.5 -93t226 93t92 238q0 144 -93 238.5t-225 94.5t-223.5 -94.5t-91.5 -238.5z" />
<glyph unicode="&#xf3;" horiz-adv-x="1323" d="M78 533q0 242 169 399.5t413 157.5q247 0 417 -157.5t170 -399.5t-169 -400.5t-415.5 -158.5t-415.5 158.5t-169 400.5zM347 532q0 -145 90.5 -238t224.5 -93t226 93t92 238q0 144 -93 238.5t-225 94.5t-223.5 -94.5t-91.5 -238.5zM548 1200l158 283h274l-220 -283h-212z " />
<glyph unicode="&#xf4;" horiz-adv-x="1323" d="M78 533q0 242 169 399.5t413 157.5q247 0 417 -157.5t170 -399.5t-169 -400.5t-415.5 -158.5t-415.5 158.5t-169 400.5zM337 1200l191 283h266l194 -283h-219l-105 168h-4l-104 -168h-219zM347 532q0 -145 90.5 -238t224.5 -93t226 93t92 238q0 144 -93 238.5t-225 94.5 t-223.5 -94.5t-91.5 -238.5z" />
<glyph unicode="&#xf5;" horiz-adv-x="1323" d="M78 533q0 242 169 399.5t413 157.5q247 0 417 -157.5t170 -399.5t-169 -400.5t-415.5 -158.5t-415.5 158.5t-169 400.5zM282 1202q0 286 234 285q48 0 89 -21t64 -47t53 -46.5t57 -20.5q82 0 82 129h179q0 -287 -233 -287q-48 0 -89 21t-64.5 47.5t-53.5 47.5t-57 21 q-80 0 -79 -129h-182zM347 532q0 -145 90.5 -238t224.5 -93t226 93t92 238q0 144 -93 238.5t-225 94.5t-223.5 -94.5t-91.5 -238.5z" />
<glyph unicode="&#xf6;" horiz-adv-x="1323" d="M78 533q0 242 169 399.5t413 157.5q247 0 417 -157.5t170 -399.5t-169 -400.5t-415.5 -158.5t-415.5 158.5t-169 400.5zM347 532q0 -145 90.5 -238t224.5 -93t226 93t92 238q0 144 -93 238.5t-225 94.5t-223.5 -94.5t-91.5 -238.5zM367 1241v242h205v-242h-205zM752 1241 v242h203v-242h-203z" />
<glyph unicode="&#xf7;" d="M67 493v207h1091v-207h-1091zM491 56v226h240v-226h-240zM491 913v225h240v-225h-240z" />
<glyph unicode="&#xf8;" horiz-adv-x="1326" d="M78 532q0 243 169 400.5t415 157.5q148 0 278 -64l86 116l114 -79l-83 -112q191 -162 193 -419q0 -242 -169.5 -400t-418.5 -158q-144 0 -263 58l-86 -122l-114 82l78 112q-201 159 -199 428zM347 532q0 -131 79 -221l376 520q-68 34 -140 34q-132 0 -223.5 -94 t-91.5 -239zM539 225q56 -25 123 -24q134 0 226 93t92 238q0 120 -71 208z" />
<glyph unicode="&#xf9;" horiz-adv-x="1267" d="M132 380v685h265v-630q0 -107 36.5 -162.5t128.5 -55.5q138 0 218.5 104.5t80.5 254.5v489h263v-1065h-255v125l6 74h-4q-42 -90 -142.5 -157.5t-226.5 -67.5q-370 2 -370 406zM309 1483h273l160 -283h-216z" />
<glyph unicode="&#xfa;" horiz-adv-x="1267" d="M132 380v685h265v-630q0 -107 36.5 -162.5t128.5 -55.5q138 0 218.5 104.5t80.5 254.5v489h263v-1065h-255v125l6 74h-4q-42 -90 -142.5 -157.5t-226.5 -67.5q-370 2 -370 406zM512 1200l158 283h275l-220 -283h-213z" />
<glyph unicode="&#xfb;" horiz-adv-x="1267" d="M132 380v685h265v-630q0 -107 36.5 -162.5t128.5 -55.5q138 0 218.5 104.5t80.5 254.5v489h263v-1065h-255v125l6 74h-4q-42 -90 -142.5 -157.5t-226.5 -67.5q-370 2 -370 406zM301 1200l192 283h265l195 -283h-220l-105 168h-4l-104 -168h-219z" />
<glyph unicode="&#xfc;" horiz-adv-x="1267" d="M132 380v685h265v-630q0 -107 36.5 -162.5t128.5 -55.5q138 0 218.5 104.5t80.5 254.5v489h263v-1065h-255v125l6 74h-4q-42 -90 -142.5 -157.5t-226.5 -67.5q-370 2 -370 406zM335 1241v242h204v-242h-204zM719 1241v242h202v-242h-202z" />
<glyph unicode="&#xfd;" horiz-adv-x="1138" d="M8 1065h299l223 -614l40 -144h4q19 84 36 140l209 618h288l-474 -1226q-52 -140 -155.5 -209t-228.5 -69q-56 0 -111.5 17t-83.5 33l-26 20l87 198q58 -44 117 -44q127 0 186 137l40 94zM458 1197l158 284h273l-219 -284h-212z" />
<glyph unicode="&#xfe;" horiz-adv-x="1278" d="M142 -418v1901h265v-455l-4 -88h4q104 150 314 150q215 0 347 -157.5t132 -399.5t-135.5 -400.5t-348.5 -158.5q-92 0 -176.5 37t-132.5 108h-4q4 -37 4 -91v-446h-265zM399 530q0 -155 73.5 -243t195.5 -88q115 0 189 94t74 240t-72 239t-187 93q-121 0 -197 -81.5 t-76 -253.5z" />
<glyph unicode="&#xff;" horiz-adv-x="1138" d="M8 1065h299l223 -614l40 -144h4q19 84 36 140l209 618h288l-474 -1226q-52 -140 -155.5 -209t-228.5 -69q-56 0 -111.5 17t-83.5 33l-26 20l87 198q58 -44 117 -44q127 0 186 137l40 94zM277 1238v243h205v-243h-205zM662 1238v243h203v-243h-203z" />
<glyph unicode="&#x131;" horiz-adv-x="548" d="M142 0v1065h265v-1065h-265z" />
<glyph unicode="&#x152;" horiz-adv-x="2023" d="M92 743.5q0 319.5 224.5 537.5t554.5 218q62 0 145 -8t118 -8h773v-231h-620v-389h501v-233h-501v-398h654v-232h-807q-35 0 -118 -9t-145 -9q-328 0 -553.5 221t-225.5 540.5zM369 744q0 -226 142.5 -378.5t359.5 -152.5q38 0 75.5 4t56.5 8l16 5v1024q-62 16 -148 16 q-217 0 -359.5 -152.5t-142.5 -373.5z" />
<glyph unicode="&#x153;" horiz-adv-x="2071" d="M78 531q0 246 166.5 402.5t409.5 156.5q284 0 440 -219h5q137 219 420 219q223 0 347.5 -143t124.5 -363l-6 -102h-733q14 -133 103.5 -207t213.5 -74q161 0 307 116l102 -189q-82 -72 -196.5 -113t-231.5 -41q-298 0 -445 227h-4q-160 -225 -447 -227 q-245 0 -410.5 155.5t-165.5 401.5zM345 530.5q0 -148.5 91.5 -239t223.5 -90.5q134 0 225.5 90.5t91.5 240.5q0 148 -92.5 240.5t-224.5 92.5t-223.5 -93t-91.5 -241.5zM1258 664h466q-2 98 -61 159.5t-146 61.5q-102 0 -171.5 -60.5t-87.5 -160.5z" />
<glyph unicode="&#x178;" horiz-adv-x="1265" d="M4 1483h305l232 -436l89 -199h5q44 106 90 199l230 436h305l-493 -863v-620h-268v620zM335 1623v243h204v-243h-204zM719 1623v243h202v-243h-202z" />
<glyph unicode="&#x192;" d="M64 -4q94 -12 143 -12q203 0 219 191l46 523h-155v211h172l21 203q8 100 47 175t88 115.5t113.5 65.5t115.5 33t106 8l178 -18v-225q-111 14 -164 14q-79 0 -145 -40t-76 -154l-19 -177h228v-211h-245l-47 -548q-11 -123 -63.5 -207.5t-129.5 -122t-141.5 -51.5 t-134.5 -14l-157 15v226z" />
<glyph unicode="&#x2c6;" horiz-adv-x="1031" d="M190 1581l192 285h266l194 -285h-220l-104 169h-4l-105 -169h-219z" />
<glyph unicode="&#x2c7;" horiz-adv-x="1031" d="M190 1866h219l105 -170h4l104 170h220l-194 -285h-266z" />
<glyph unicode="&#x2d8;" horiz-adv-x="1029" d="M205 1840v26h188v-26q0 -60 35.5 -91.5t87.5 -31.5q48 0 85 32.5t37 92.5v24h187v-26q0 -125 -89.5 -196t-219.5 -71q-131 0 -221 71t-90 196z" />
<glyph unicode="&#x2d9;" horiz-adv-x="1031" d="M403 1634v232h225v-232h-225z" />
<glyph unicode="&#x2da;" horiz-adv-x="1031" d="M317 1720q0 77 59 120.5t140 43.5q80 0 138 -44t58 -120t-58 -119.5t-138 -43.5q-81 0 -140 43.5t-59 119.5zM445 1720q0 -32 18.5 -52t52.5 -20q32 0 51 20t19 52q0 33 -19 52.5t-51 19.5t-51.5 -20t-19.5 -52z" />
<glyph unicode="&#x2db;" horiz-adv-x="1031" d="M335 -234q0 76 53 147t105 103l55 36l150 -26q-17 -13 -41 -34.5t-63.5 -71.5t-39.5 -83q0 -30 26 -48.5t50 -22.5l26 -4l-64 -197q-11 0 -28.5 3.5t-61.5 17t-77.5 33.5t-61.5 58.5t-28 88.5z" />
<glyph unicode="&#x2dc;" horiz-adv-x="1029" d="M136 1583q0 287 233 287q60 0 107.5 -35t85.5 -68t71 -33q82 0 81 130h181q0 -287 -235 -287q-60 0 -107 34.5t-85 68t-71 33.5q-80 0 -80 -130h-181z" />
<glyph unicode="&#x2dd;" horiz-adv-x="1029" d="M123 1581l148 285h226l-154 -285h-220zM489 1581l159 285h261l-217 -285h-203z" />
<glyph unicode="&#x400;" horiz-adv-x="1188" d="M180 0v1483h888v-231h-619v-389h500v-233h-500v-398h652v-232h-921zM361 1866h274l159 -285h-216z" />
<glyph unicode="&#x401;" horiz-adv-x="1188" d="M180 0v1483h888v-231h-619v-389h500v-233h-500v-398h652v-232h-921zM343 1623v243h205v-243h-205zM727 1623v243h202v-243h-202z" />
<glyph unicode="&#x402;" horiz-adv-x="1557" d="M30 1252v231h1130v-231h-473v-343l-4 -65h4q166 79 362 79q209 0 331 -126.5t122 -326.5q0 -221 -128.5 -358.5t-339.5 -137.5q-50 0 -101 8v223q34 -4 66 -4q89 0 161 59t72 189q0 108 -63.5 172t-182.5 64q-77 0 -151.5 -18.5t-111.5 -36.5l-36 -18v-612h-269v1252 h-388z" />
<glyph unicode="&#x403;" horiz-adv-x="1056" d="M180 0v1483h852v-231h-583v-1252h-269zM451 1581l159 285h273l-219 -285h-213z" />
<glyph unicode="&#x404;" horiz-adv-x="1495" d="M94 748q0 325 211 543t552 218q100 0 193.5 -21t155.5 -50.5t109 -60t68 -51.5l21 -20l-130 -201q-6 6 -19.5 16.5t-55 38.5t-85.5 49t-111 38t-134 17q-199 0 -330.5 -116t-158.5 -295h710v-220h-710q28 -183 157 -298.5t334 -115.5q115 0 225 45t162 91l52 44l135 -190 q-8 -10 -24.5 -26t-72 -55.5t-118 -70.5t-163 -57t-206.5 -26q-337 0 -552 221.5t-215 552.5z" />
<glyph unicode="&#x405;" horiz-adv-x="1162" d="M73 177l146 203q74 -64 173 -110.5t194 -46.5q100 0 159 47t59 123q0 77 -71 133t-172 98t-203.5 92.5t-173.5 142.5t-71 219q0 192 143 311.5t362 119.5q261 0 435 -160l-120 -219q-62 56 -150.5 93t-174.5 37q-102 0 -164 -46t-62 -124q0 -75 71 -129t172.5 -94 t203.5 -89t173.5 -140.5t71.5 -223.5q0 -188 -131.5 -314t-362.5 -126q-141 0 -275 53t-232 150z" />
<glyph unicode="&#x406;" horiz-adv-x="628" d="M180 0v1483h269v-1483h-269z" />
<glyph unicode="&#x407;" horiz-adv-x="628" d="M23 1623v243h204v-243h-204zM180 0v1483h269v-1483h-269zM407 1623v243h203v-243h-203z" />
<glyph unicode="&#x408;" horiz-adv-x="1140" d="M50 439v85h267v-69q0 -100 48.5 -167t146.5 -67q86 0 140 54.5t54 167.5v809h-385v231h652v-1044q0 -228 -136.5 -346.5t-324.5 -118.5q-190 0 -326 119.5t-136 345.5z" />
<glyph unicode="&#x409;" horiz-adv-x="2025" d="M40 -12v246q167 14 239 197t72 586v466h879v-582h274q212 0 342 -124.5t130 -327.5q0 -201 -131.5 -325t-335.5 -124h-546v1252h-341v-235q0 -249 -24 -422t-86.5 -314t-179.5 -213t-292 -80zM1230 232h233q111 0 175 58.5t64 159t-65.5 159.5t-177.5 59h-229v-436z" />
<glyph unicode="&#x40a;" horiz-adv-x="2127" d="M180 0v1483h269v-588h614v588h268v-588h282q207 0 336.5 -123.5t129.5 -324.5q0 -199 -130.5 -323t-335.5 -124h-550v662h-614v-662h-269zM1331 232h234q111 0 175 57.5t64 157.5q0 98 -65.5 156.5t-177.5 58.5h-230v-430z" />
<glyph unicode="&#x40b;" horiz-adv-x="1561" d="M30 1252v231h1128v-231h-471v-345l-4 -70h4q176 86 366 86q213 0 317.5 -122t104.5 -335v-466h-273v426q0 259 -235 259q-155 0 -280 -79v-606h-269v1252h-388z" />
<glyph unicode="&#x40c;" horiz-adv-x="1332" d="M180 0v1483h269v-604h193l348 604h292l-419 -706v-4l445 -773h-305l-361 648h-193v-648h-269zM578 1581l159 285h274l-219 -285h-214z" />
<glyph unicode="&#x40d;" horiz-adv-x="1572" d="M180 0v1483h269v-857l-14 -229h4q71 144 125 231l560 855h267v-1483h-267v855l14 229h-4q-69 -142 -123 -229l-564 -855h-267zM484 1866h274l159 -285h-215z" />
<glyph unicode="&#x40e;" horiz-adv-x="1278" d="M-6 1483h297l315 -662l84 -197h4q27 98 60 195l238 664h282l-457 -1172q-28 -69 -57 -121t-74.5 -104t-108.5 -82t-140 -30q-151 2 -297 104l119 201q94 -73 167 -72q98 0 148 130zM305 1838v28h203v-28q0 -62 42 -97t98 -35t98.5 35t42.5 99v26h201v-28 q0 -132 -100.5 -210t-242 -78t-242 78t-100.5 210z" />
<glyph unicode="&#x40f;" horiz-adv-x="1539" d="M180 0v1483h269v-1251h641v1251h270v-1483h-469v-293h-241v293h-470z" />
<glyph unicode="&#x410;" horiz-adv-x="1357" d="M16 0l521 1483h284l520 -1483h-276l-127 380h-520l-125 -380h-277zM484 600h387l-131 397l-59 229h-4q-33 -146 -59 -229z" />
<glyph unicode="&#x411;" horiz-adv-x="1286" d="M180 0v1483h910v-231h-641v-343h297q207 0 335.5 -124.5t128.5 -333.5q0 -201 -127.5 -326t-330.5 -125h-572zM449 232h255q111 0 171.5 58.5t60.5 161t-62.5 164t-173.5 61.5h-251v-445z" />
<glyph unicode="&#x412;" horiz-adv-x="1321" d="M180 0v1483h528q207 0 333.5 -101.5t126.5 -280.5q0 -104 -48 -188t-132 -130v-4q118 -33 179 -131t61 -218q0 -211 -146 -320.5t-366 -109.5h-536zM449 232h288q100 0 158 59.5t58 155.5q0 94 -58 153.5t-158 59.5h-288v-428zM449 877h261q86 0 135.5 53.5t49.5 137.5 q0 82 -49.5 133t-139.5 51h-257v-375z" />
<glyph unicode="&#x413;" horiz-adv-x="1056" d="M180 0v1483h852v-231h-583v-1252h-269z" />
<glyph unicode="&#x414;" horiz-adv-x="1545" d="M14 232h151q215 325 215 928v323h922v-1251h165v-525h-241v293h-963v-293h-249v525zM443 232h589v1020h-397v-112q-1 -597 -192 -908z" />
<glyph unicode="&#x415;" horiz-adv-x="1188" d="M180 0v1483h888v-231h-619v-389h500v-233h-500v-398h652v-232h-921z" />
<glyph unicode="&#x416;" horiz-adv-x="1946" d="M28 0l417 773v4l-387 706h291l317 -604h173v604h268v-604h173l318 604h290l-389 -706v-4l421 -773h-303l-337 648h-173v-648h-268v648h-173l-336 -648h-302z" />
<glyph unicode="&#x417;" horiz-adv-x="1158" d="M46 186l146 179q60 -64 150 -108t184 -44q122 0 192.5 61t70.5 167q0 96 -63.5 151.5t-171.5 55.5h-182v217h146q100 0 165 58.5t65 146.5q0 90 -59 147t-169 57q-169 0 -321 -125l-109 196q197 164 476 164q190 0 322.5 -109t132.5 -297q0 -220 -204 -330v-4 q115 -36 181.5 -125.5t66.5 -219.5q0 -205 -147 -327.5t-366 -122.5q-142 0 -277 56t-229 156z" />
<glyph unicode="&#x418;" horiz-adv-x="1572" d="M180 0v1483h269v-857l-14 -229h4q71 144 125 231l560 855h267v-1483h-267v855l14 229h-4q-69 -142 -123 -229l-564 -855h-267z" />
<glyph unicode="&#x419;" horiz-adv-x="1572" d="M180 0v1483h269v-857l-14 -229h4q71 144 125 231l560 855h267v-1483h-267v855l14 229h-4q-69 -142 -123 -229l-564 -855h-267zM455 1838v28h203v-28q0 -62 42 -97t98.5 -35t99 35t42.5 99v26h200v-28q0 -132 -100 -210t-242 -78t-242.5 78t-100.5 210z" />
<glyph unicode="&#x41a;" horiz-adv-x="1332" d="M180 0v1483h269v-604h193l348 604h292l-419 -706v-4l445 -773h-305l-361 648h-193v-648h-269z" />
<glyph unicode="&#x41b;" horiz-adv-x="1445" d="M30 -16v246q167 23 243 222.5t76 625.5v405h917v-1483h-269v1252h-391v-178q0 -548 -135.5 -814t-440.5 -276z" />
<glyph unicode="&#x41c;" horiz-adv-x="1796" d="M123 0l122 1483h285l293 -733l74 -218h4q39 130 72 218l293 733h286l121 -1483h-269l-61 829q-4 44 -4 101.5t2 93.5v35h-4q-48 -144 -81 -230l-241 -574h-234l-240 574l-81 232h-5q6 -134 -2 -232l-60 -829h-270z" />
<glyph unicode="&#x41d;" horiz-adv-x="1574" d="M180 0v1483h269v-628h679v628h267v-1483h-267v622h-679v-622h-269z" />
<glyph unicode="&#x41e;" horiz-adv-x="1716" d="M92 752q0 319 220 538t546 219t546.5 -218.5t220.5 -538.5q0 -329 -220.5 -553.5t-546.5 -224.5t-546 224.5t-220 553.5zM369 752q0 -226 142.5 -378.5t347 -152.5t346.5 152.5t142 378.5q0 215 -142 362.5t-346.5 147.5t-347 -147.5t-142.5 -362.5z" />
<glyph unicode="&#x41f;" horiz-adv-x="1559" d="M180 0v1483h1201v-1483h-269v1252h-663v-1252h-269z" />
<glyph unicode="&#x420;" horiz-adv-x="1278" d="M180 0v1483h572q209 0 340.5 -133.5t131.5 -349t-131.5 -352t-340.5 -136.5h-303v-512h-269zM449 746h253q117 0 183 68.5t66 186.5q0 115 -66 183t-179 68h-257v-506z" />
<glyph unicode="&#x421;" horiz-adv-x="1495" d="M94 748q0 325 215 543t548 218q338 0 547 -203l-130 -201q-82 69 -191.5 113t-213.5 44q-234 0 -365.5 -146.5t-131.5 -363.5q0 -220 134 -375.5t365 -155.5q238 0 431 188l141 -194q-235 -241 -582 -241q-345 0 -556 219.5t-211 554.5z" />
<glyph unicode="&#x422;" horiz-adv-x="1300" d="M30 1252v231h1240v-231h-487v-1252h-267v1252h-486z" />
<glyph unicode="&#x423;" horiz-adv-x="1278" d="M-6 1483h297l315 -662l84 -197h4q27 98 60 195l238 664h282l-457 -1172q-28 -69 -57 -121t-74.5 -104t-108.5 -82t-140 -30q-151 2 -297 104l119 201q94 -73 167 -72q98 0 148 130z" />
<glyph unicode="&#x424;" horiz-adv-x="1764" d="M69 789q0 272 189 443.5t490 171.5v163h269v-163q301 0 490 -171.5t189 -443.5q0 -277 -188 -451.5t-491 -174.5v-189h-269v189q-301 0 -490 175.5t-189 450.5zM345 789q0 -177 111.5 -288.5t291.5 -111.5v789q-180 0 -291.5 -107.5t-111.5 -281.5zM1017 389 q179 0 292.5 111.5t113.5 288.5q0 174 -113 281.5t-293 107.5v-789z" />
<glyph unicode="&#x425;" horiz-adv-x="1298" d="M28 0l459 752l-443 731h307l205 -363l92 -180h4q42 92 92 180l207 363h307l-445 -731l461 -752h-301l-231 399l-92 175h-4q-42 -90 -90 -175l-231 -399h-297z" />
<glyph unicode="&#x426;" horiz-adv-x="1610" d="M180 0v1483h269v-1251h641v1251h270v-1251h175v-525h-240v293h-1115z" />
<glyph unicode="&#x427;" horiz-adv-x="1378" d="M96 997v486h273v-426q0 -261 249 -261q169 0 305 87v600h274v-1483h-274v574l4 70h-4q-179 -92 -373 -92q-228 0 -341 115.5t-113 329.5z" />
<glyph unicode="&#x428;" horiz-adv-x="2123" d="M180 0v1483h269v-1251h478v1251h270v-1251h478v1251h268v-1483h-1763z" />
<glyph unicode="&#x429;" horiz-adv-x="2199" d="M180 0v1483h269v-1251h478v1251h270v-1251h478v1251h268v-1251h184v-525h-243v293h-1704z" />
<glyph unicode="&#x42a;" horiz-adv-x="1473" d="M14 1252v231h650v-520h291q205 0 334.5 -132.5t129.5 -352.5q0 -213 -127.5 -345.5t-332.5 -132.5h-564v1252h-381zM664 232h247q111 0 172 65.5t61 181t-63.5 184t-173.5 68.5h-243v-499z" />
<glyph unicode="&#x42b;" horiz-adv-x="1829" d="M180 0v1483h269v-520h276q207 0 335 -132.5t128 -352.5q0 -213 -127.5 -345.5t-329.5 -132.5h-551zM449 232h234q112 0 172 65.5t60 181t-63 184t-173 68.5h-230v-499zM1381 0v1483h267v-1483h-267z" />
<glyph unicode="&#x42c;" horiz-adv-x="1258" d="M180 0v1483h269v-520h291q205 0 334.5 -132.5t129.5 -352.5q0 -213 -127.5 -345.5t-332.5 -132.5h-564zM449 232h247q111 0 172 65.5t61 181t-63.5 184t-173.5 68.5h-243v-499z" />
<glyph unicode="&#x42d;" horiz-adv-x="1495" d="M58 203l136 190q81 -78 198.5 -126t242.5 -48q197 0 326 117t157 297h-711v220h713q-24 179 -155.5 295t-326.5 116q-230 0 -423 -168l-129 203q100 102 248 156t312 54q340 0 549 -217.5t209 -541.5q0 -333 -217.5 -554.5t-551.5 -221.5q-339 2 -577 229z" />
<glyph unicode="&#x42e;" horiz-adv-x="2261" d="M180 0v1483h269v-628h230q34 281 240.5 467.5t499.5 186.5q319 0 535.5 -218.5t216.5 -538.5q0 -329 -216.5 -553.5t-535.5 -224.5q-287 0 -490.5 183.5t-245.5 464.5h-234v-622h-269zM947 752q0 -226 136.5 -378.5t335 -152.5t336 153.5t137.5 377.5q0 215 -137.5 361.5 t-336 146.5t-335 -146.5t-136.5 -361.5z" />
<glyph unicode="&#x42f;" horiz-adv-x="1323" d="M36 0l313 522l48 78v4q-132 58 -197.5 170.5t-65.5 259.5q0 150 67.5 255.5t180.5 153.5q92 40 282 40h480v-1483h-269v554h-217l-321 -554h-301zM407 1024q0 -117 63 -181t172 -64h233v473h-190q-125 0 -186 -38q-92 -56 -92 -190z" />
<glyph unicode="&#x430;" horiz-adv-x="1118" d="M60 295q0 113 62 192t163.5 116t196 51t199.5 14h46v15q0 188 -201 188q-146 0 -296 -102l-98 190q69 54 186 92.5t232 38.5q209 0 325.5 -111.5t116.5 -312.5v-666h-246v90l6 77h-4q-50 -85 -140 -139t-197 -54q-148 0 -249.5 89.5t-101.5 231.5zM323 317q0 -56 43 -98 t118 -42q107 0 176 88t69 193v29h-46q-360 0 -360 -170z" />
<glyph unicode="&#x431;" horiz-adv-x="1244" d="M96 622q0 305 119.5 487t404.5 292l368 145l80 -215l-406 -155q-146 -60 -224.5 -143.5t-86.5 -213.5h4q123 155 351 154q205 0 330.5 -133.5t125.5 -355.5q0 -223 -144.5 -366.5t-377.5 -143.5q-268 0 -406 176.5t-138 471.5zM365 482q0 -131 75.5 -209.5t188.5 -78.5 t189.5 77.5t76.5 209t-75.5 210t-186.5 78.5q-115 0 -191.5 -80.5t-76.5 -206.5z" />
<glyph unicode="&#x432;" horiz-adv-x="1123" d="M142 0v1065h496q165 0 262 -72t97 -204q0 -75 -37 -139t-103 -94v-2q92 -24 139.5 -91.5t47.5 -153.5q0 -153 -109.5 -231t-286.5 -78h-506zM407 175h195q85 0 130 39t45 103q0 68 -46 106.5t-129 38.5h-195v-287zM407 626h173q74 0 111.5 39t37.5 102q0 125 -153 124 h-169v-265z" />
<glyph unicode="&#x433;" horiz-adv-x="881" d="M142 0v1065h700v-226h-435v-839h-265z" />
<glyph unicode="&#x434;" horiz-adv-x="1286" d="M28 213h131q142 209 142 631v221h783v-852h152v-464h-239v251h-724v-251h-245v464zM424 213h395v640h-265v-51q0 -374 -130 -589z" />
<glyph unicode="&#x435;" horiz-adv-x="1170" d="M78 532q0 247 151 402.5t391 155.5q222 0 347 -143t125 -363q0 -35 -8 -102h-733q12 -133 102 -207t217 -74q159 0 305 116l105 -189q-79 -72 -195 -113t-233 -41q-257 0 -415.5 162.5t-158.5 395.5zM357 664h470q-2 104 -61.5 164.5t-151.5 60.5q-100 0 -169.5 -61.5 t-87.5 -163.5z" />
<glyph unicode="&#x436;" horiz-adv-x="1639" d="M28 0l325 548v4l-299 513h276l236 -413h130v413h249v-413h129l236 413h275l-296 -513v-4l326 -548h-293l-244 428h-133v-428h-249v428h-134l-245 -428h-289z" />
<glyph unicode="&#x437;" horiz-adv-x="955" d="M46 132l113 169q126 -121 269 -121q86 0 135 38.5t49 104.5q0 132 -177 132h-130v185h109q165 0 164 123q0 127 -158 126q-125 0 -257 -87l-85 169q161 119 392 119q163 0 268.5 -78.5t105.5 -213.5q0 -172 -146 -240v-4q179 -67 179 -245q0 -159 -118.5 -247t-300.5 -88 q-245 0 -412 158z" />
<glyph unicode="&#x438;" horiz-adv-x="1265" d="M142 0v1065h253v-570q0 -78 -6 -128h4q8 19 79 128l395 570h257v-1065h-253v568q0 46 6 128h-4q-6 -15 -79 -128l-395 -568h-257z" />
<glyph unicode="&#x439;" horiz-adv-x="1265" d="M142 0v1065h253v-570q0 -78 -6 -128h4q8 19 79 128l395 570h257v-1065h-253v568q0 46 6 128h-4q-6 -15 -79 -128l-395 -568h-257zM291 1456v27h202v-27q0 -63 41.5 -97.5t98.5 -34.5t99.5 34.5t42.5 100.5v24h200v-27q0 -132 -100 -210t-242 -78t-242 78t-100 210z" />
<glyph unicode="&#x43a;" horiz-adv-x="1146" d="M142 0v1065h265v-407h130l259 407h294l-338 -507v-4l380 -554h-307l-279 432h-139v-432h-265z" />
<glyph unicode="&#x43b;" horiz-adv-x="1184" d="M42 -10v233q108 15 165.5 129t57.5 379v334h777v-1065h-265v851h-259v-120q0 -363 -110.5 -548t-365.5 -193z" />
<glyph unicode="&#x43c;" horiz-adv-x="1551" d="M98 0l96 1065h301l226 -549l52 -136h4q30 76 52 136l230 549h297l95 -1065h-254l-37 576l2 182h-4q-30 -80 -64 -154l-209 -470h-219l-208 468l-65 156h-4l2 -182l-38 -576h-255z" />
<glyph unicode="&#x43d;" horiz-adv-x="1269" d="M142 0v1065h265v-411h456v411h265v-1065h-265v430h-456v-430h-265z" />
<glyph unicode="&#x43e;" horiz-adv-x="1323" d="M78 533q0 242 169 399.5t413 157.5q247 0 417 -157.5t170 -399.5t-169 -400.5t-415.5 -158.5t-415.5 158.5t-169 400.5zM347 532q0 -145 90.5 -238t224.5 -93t226 93t92 238q0 144 -93 238.5t-225 94.5t-223.5 -94.5t-91.5 -238.5z" />
<glyph unicode="&#x43f;" horiz-adv-x="1254" d="M142 0v1065h972v-1065h-266v839h-441v-839h-265z" />
<glyph unicode="&#x440;" horiz-adv-x="1282" d="M142 -418v1483h243v-79l-5 -75h5q52 86 142.5 132.5t199.5 46.5q215 0 344 -154.5t129 -403.5q0 -250 -137.5 -404t-350.5 -154q-190 0 -307 151h-4q6 -37 6 -91v-452h-265zM399 526q0 -133 71 -230t194 -97q115 0 191 88.5t76 240.5q0 150 -73 242.5t-190 92.5 q-115 0 -192 -84.5t-77 -252.5z" />
<glyph unicode="&#x441;" horiz-adv-x="1144" d="M78 532q0 234 159.5 396t418.5 162q115 0 225.5 -39.5t183.5 -119.5l-118 -181q-116 115 -277 115q-144 0 -233.5 -95t-89.5 -235t91.5 -237t240.5 -97q174 0 313 136l102 -189q-75 -80 -193 -127t-245 -47q-259 0 -418.5 160.5t-159.5 397.5z" />
<glyph unicode="&#x442;" horiz-adv-x="1044" d="M40 839v226h967v-226h-353v-839h-263v839h-351z" />
<glyph unicode="&#x443;" horiz-adv-x="1138" d="M8 1065h299l223 -614l40 -144h4q19 84 36 140l209 618h288l-474 -1226q-52 -140 -155.5 -209t-228.5 -69q-56 0 -111.5 17t-83.5 33l-26 20l87 198q58 -44 117 -44q127 0 186 137l40 94z" />
<glyph unicode="&#x444;" horiz-adv-x="1563" d="M80 532q0 241 163.5 394.5t414.5 161.5v375h251v-375q251 -8 413.5 -161.5t162.5 -394.5q0 -242 -162.5 -394t-413.5 -164v-392h-251v392q-251 11 -414.5 163.5t-163.5 394.5zM339 532q0 -147 88.5 -240t230.5 -104v687q-142 -10 -230.5 -101.5t-88.5 -241.5zM909 188 q142 10 230.5 103.5t88.5 240.5q0 150 -88.5 241.5t-230.5 101.5v-687z" />
<glyph unicode="&#x445;" horiz-adv-x="1083" d="M32 0l350 539l-342 526h301l165 -290l33 -67h4q20 40 35 67l166 290h300l-342 -526l353 -539h-297l-184 309l-31 56h-4q-15 -33 -29 -56l-185 -309h-293z" />
<glyph unicode="&#x446;" horiz-adv-x="1302" d="M142 0v1065h265v-840h426v840h266v-840h153v-476h-241v251h-869z" />
<glyph unicode="&#x447;" horiz-adv-x="1136" d="M80 708v357h261v-313q0 -178 181 -178q111 0 207 68v423h263v-1065h-263v363l2 59h-4q-125 -69 -288.5 -69t-261 88.5t-97.5 266.5z" />
<glyph unicode="&#x448;" horiz-adv-x="1706" d="M142 0v1065h253v-840h332v840h253v-840h332v840h253v-1065h-1423z" />
<glyph unicode="&#x449;" horiz-adv-x="1768" d="M142 0v1065h253v-840h332v840h253v-840h332v840h253v-840h150v-476h-238v251h-1335z" />
<glyph unicode="&#x44a;" horiz-adv-x="1212" d="M18 839v226h546v-365h199q190 0 294.5 -91t104.5 -262q0 -161 -99.5 -254t-302.5 -93h-461v839h-281zM564 182h152q90 0 135.5 45.5t45.5 121.5q0 77 -46.5 124t-136.5 47h-150v-338z" />
<glyph unicode="&#x44b;" horiz-adv-x="1551" d="M142 0v1065h265v-365h191q189 0 295 -91t106 -262q0 -161 -100.5 -254t-302.5 -93h-454zM407 182h147q88 0 132.5 45.5t44.5 121.5q0 77 -45.5 124t-135.5 47h-143v-338zM1144 0v1065h266v-1065h-266z" />
<glyph unicode="&#x44c;" horiz-adv-x="1058" d="M142 0v1065h265v-365h199q190 0 295.5 -91t105.5 -262q0 -161 -100 -254t-303 -93h-462zM407 182h155q88 0 133 45.5t45 121.5q0 77 -46 124t-136 47h-151v-338z" />
<glyph unicode="&#x44d;" horiz-adv-x="1140" d="M50 132l98 183q136 -129 322 -129q132 0 222.5 71t114.5 186h-466v181h466q-21 116 -111 185.5t-216 69.5q-169 0 -296 -114l-113 177q74 74 186 111t234 37q257 0 414.5 -161.5t157.5 -396.5q0 -237 -159.5 -397.5t-419 -160.5t-434.5 158z" />
<glyph unicode="&#x44e;" horiz-adv-x="1776" d="M142 0v1065h265v-421h175q36 199 188.5 322.5t361.5 123.5q241 0 404.5 -157.5t163.5 -399.5t-162.5 -400.5t-403.5 -158.5q-213 0 -365.5 125.5t-188.5 328.5h-173v-428h-265zM835 533q0 -146 86 -239t213 -93q126 0 211.5 93t85.5 239t-85.5 239t-211.5 93 q-127 0 -213 -93t-86 -239z" />
<glyph unicode="&#x44f;" horiz-adv-x="1106" d="M38 0l233 341l48 64v2q-94 34 -154.5 118.5t-60.5 195.5q0 163 103.5 253.5t279.5 90.5h478v-1065h-265v361h-138l-239 -361h-285zM369 723q0 -88 52.5 -132.5t138.5 -44.5h140v345h-138q-192 0 -193 -168z" />
<glyph unicode="&#x450;" horiz-adv-x="1170" d="M78 532q0 247 151 402.5t391 155.5q222 0 347 -143t125 -363q0 -35 -8 -102h-733q12 -133 102 -207t217 -74q159 0 305 116l105 -189q-79 -72 -195 -113t-233 -41q-257 0 -415.5 162.5t-158.5 395.5zM321 1483h275l158 -283h-215zM357 664h470q-2 104 -61.5 164.5 t-151.5 60.5q-100 0 -169.5 -61.5t-87.5 -163.5z" />
<glyph unicode="&#x451;" horiz-adv-x="1170" d="M78 532q0 247 151 402.5t391 155.5q222 0 347 -143t125 -363q0 -35 -8 -102h-733q12 -133 102 -207t217 -74q159 0 305 116l105 -189q-79 -72 -195 -113t-233 -41q-257 0 -415.5 162.5t-158.5 395.5zM315 1241v242h205v-242h-205zM357 664h470q-2 104 -61.5 164.5 t-151.5 60.5q-100 0 -169.5 -61.5t-87.5 -163.5zM700 1241v242h203v-242h-203z" />
<glyph unicode="&#x452;" horiz-adv-x="1280" d="M14 1130v184h128v169h265v-169h395v-184h-395v-288l-4 -90h4q44 85 142.5 148t225.5 63q373 0 371 -405v-542q0 -108 -31 -192.5t-76 -132.5t-105.5 -78.5t-110.5 -40t-100 -9.5l-103 7v223q32 -4 67 -4q194 0 194 229v486q0 106 -36 161.5t-131 55.5 q-104 0 -181.5 -61.5t-106.5 -160.5q-18 -54 -19 -138v-361h-265v1130h-128z" />
<glyph unicode="&#x453;" horiz-adv-x="881" d="M142 0v1065h700v-226h-435v-839h-265zM339 1200l158 283h274l-219 -283h-213z" />
<glyph unicode="&#x454;" horiz-adv-x="1146" d="M78 532q0 234 159.5 396t418.5 162q125 0 228.5 -37.5t143.5 -75.5l42 -35l-115 -182q-13 12 -36.5 31.5t-99 51.5t-153.5 32q-129 0 -219 -65.5t-112 -179.5h465v-183h-465q23 -120 113.5 -190.5t228.5 -70.5q86 0 166 34.5t118 70.5l38 34l100 -185q-7 -6 -19 -17.5 t-54 -40t-90.5 -50.5t-124.5 -40t-155 -18q-259 0 -418.5 160.5t-159.5 397.5z" />
<glyph unicode="&#x455;" horiz-adv-x="953" d="M56 132l119 175q128 -117 303 -117q72 0 110 28.5t38 78.5q0 46 -54 79t-131.5 60.5t-155.5 64t-132.5 105.5t-54.5 165q0 150 116 234.5t292 84.5q221 0 359 -121l-98 -186q-46 40 -122.5 66t-147.5 26q-148 0 -148 -102q0 -46 54.5 -79.5t132.5 -60.5t155.5 -61.5 t131.5 -103.5t54 -165q0 -142 -110.5 -235.5t-292.5 -93.5q-255 0 -418 158z" />
<glyph unicode="&#x456;" horiz-adv-x="548" d="M142 0v1065h265v-1065h-265zM142 1247v236h265v-236h-265z" />
<glyph unicode="&#x457;" horiz-adv-x="548" d="M-16 1241v242h204v-242h-204zM142 0v1065h265v-1065h-265zM367 1241v242h203v-242h-203z" />
<glyph unicode="&#x458;" horiz-adv-x="548" d="M-117 -203q25 -4 46 -4q35 0 67 7.5t67 25t57 61t22 103.5v1075h265v-1097q0 -102 -33 -178.5t-80 -116.5t-112 -65.5t-116.5 -32.5t-103.5 -7q-40 0 -79 6v223zM142 1247v236h265v-236h-265z" />
<glyph unicode="&#x459;" horiz-adv-x="1626" d="M50 -10v233q111 15 169 126t58 370v346h709v-386h192q190 0 295.5 -88.5t105.5 -255.5q0 -158 -100 -246.5t-303 -88.5h-455v851h-193v-124q0 -376 -108.5 -552.5t-369.5 -184.5zM986 182h158q88 0 133 40.5t45 112.5q0 73 -45 116.5t-135 43.5h-156v-313z" />
<glyph unicode="&#x45a;" horiz-adv-x="1748" d="M142 0v1065h265v-388h435v388h265v-393h188q190 0 297.5 -86.5t107.5 -248.5q0 -157 -100.5 -247t-302.5 -90h-455v468h-435v-468h-265zM1107 182h159q179 0 179 155q0 73 -48 113.5t-137 40.5h-153v-309z" />
<glyph unicode="&#x45b;" horiz-adv-x="1280" d="M14 1130v184h128v169h265v-169h395v-184h-395v-288l-4 -90h4q44 87 141.5 149t226.5 62q373 0 371 -403v-560h-265v506q0 104 -36 159.5t-131 55.5q-104 0 -181.5 -60.5t-106.5 -158.5q-18 -54 -19 -141v-361h-265v1130h-128z" />
<glyph unicode="&#x45c;" horiz-adv-x="1146" d="M142 0v1065h265v-407h130l259 407h294l-338 -507v-4l380 -554h-307l-279 432h-139v-432h-265zM458 1200l158 283h273l-219 -283h-212z" />
<glyph unicode="&#x45d;" horiz-adv-x="1265" d="M142 0v1065h253v-570q0 -78 -6 -128h4q8 19 79 128l395 570h257v-1065h-253v568q0 46 6 128h-4q-6 -15 -79 -128l-395 -568h-257zM347 1483h273l159 -283h-215z" />
<glyph unicode="&#x45e;" horiz-adv-x="1138" d="M8 1065h299l223 -614l40 -144h4q19 84 36 140l209 618h288l-474 -1226q-52 -140 -155.5 -209t-228.5 -69q-56 0 -111.5 17t-83.5 33l-26 20l87 198q58 -44 117 -44q127 0 186 137l40 94zM230 1456v27h202v-27q0 -63 42 -97.5t98 -34.5t99 34.5t43 100.5v24h201v-27 q0 -132 -100.5 -210t-242.5 -78t-242 78t-100 210z" />
<glyph unicode="&#x45f;" horiz-adv-x="1228" d="M142 0v1065h265v-840h414v840h263v-1065h-351v-251h-238v251h-353z" />
<glyph unicode="&#x462;" horiz-adv-x="1461" d="M20 1126v207h362v196h264v-196h426v-207h-426v-217h292q207 0 337.5 -125.5t130.5 -325.5q0 -203 -131 -330.5t-335 -127.5h-562v1126h-358zM646 232h245q112 0 176.5 60.5t64.5 165.5q0 100 -65.5 159.5t-179.5 59.5h-241v-445z" />
<glyph unicode="&#x463;" horiz-adv-x="1168" d="M-6 957v192h253v334h265v-334h343v-192h-341v-257h207q190 0 294.5 -91t104.5 -262q0 -161 -99.5 -254t-301.5 -93h-470v957h-255zM514 182h161q90 0 135 45.5t45 121.5q0 77 -46 124t-137 47h-158v-338z" />
<glyph unicode="&#x472;" horiz-adv-x="1716" d="M92 752q0 319 219 538t547 219t547.5 -218.5t219.5 -538.5q0 -331 -219.5 -554.5t-547.5 -223.5t-547 223.5t-219 554.5zM372 642q36 -190 170.5 -310.5t318.5 -120.5q181 0 316 121t168 310h-973zM372 851h975q-33 183 -169 300t-317 117q-186 0 -322 -117t-167 -300z " />
<glyph unicode="&#x473;" horiz-adv-x="1323" d="M78 533q0 242 169 399.5t413 157.5q247 0 417 -157.5t170 -399.5t-169 -400.5t-415.5 -158.5t-415.5 158.5t-169 400.5zM325 460q21 -130 116.5 -209.5t222.5 -79.5q123 0 218 79.5t119 209.5h-676zM328 616h671q-28 124 -121 199.5t-214 75.5q-125 0 -218 -74.5 t-118 -200.5z" />
<glyph unicode="&#x474;" horiz-adv-x="1445" d="M10 1483h291l325 -967l57 -217h4q30 131 57 217l269 819q31 92 75 120t144 28h187v-233h-51q-62 0 -89 -17t-51 -84l-403 -1149h-279z" />
<glyph unicode="&#x475;" horiz-adv-x="1206" d="M26 1065h279l221 -660l38 -160h4q18 98 40 160l148 464q33 108 89 152t164 44h161v-228h-48q-62 0 -90.5 -20.5t-51.5 -87.5l-253 -729h-316z" />
<glyph unicode="&#x48a;" horiz-adv-x="1676" d="M180 0v1483h269v-857l-14 -229h4q71 144 125 231l560 855h267v-1251h251v-146l-165 -379h-188l81 293h-246v855l14 229h-4q-69 -142 -123 -229l-564 -855h-267zM460 1838v28h202v-28q0 -62 42 -97t98.5 -35t99.5 35t43 99v26h199v-28q0 -132 -99.5 -210t-242 -78 t-242.5 78t-100 210z" />
<glyph unicode="&#x48b;" horiz-adv-x="1382" d="M142 0v1065h253v-570q0 -78 -6 -128h4q8 19 79 128l395 570h257v-842h219v-139l-143 -335h-179l69 251h-219v568q0 46 6 128h-4q-6 -15 -79 -128l-395 -568h-257zM301 1456v27h203v-27q0 -63 41 -97.5t98 -34.5t99.5 34.5t42.5 100.5v24h201v-27q0 -132 -100.5 -210 t-242 -78t-242 78t-100.5 210z" />
<glyph unicode="&#x48c;" horiz-adv-x="1445" d="M18 1172v205h343v190h263v-190h402v-205h-402v-257h299q207 0 337.5 -126.5t130.5 -330.5q0 -203 -130.5 -330.5t-335.5 -127.5h-570v1172h-337zM624 232h253q111 0 176 60.5t65 165t-66 165t-179 60.5h-249v-451z" />
<glyph unicode="&#x48d;" horiz-adv-x="1176" d="M0 957v192h253v334h265v-334h343v-192h-341v-257h207q190 0 294.5 -91t104.5 -262q0 -161 -99.5 -254t-301.5 -93h-470v957h-255zM520 182h161q90 0 135 45.5t45 121.5q0 77 -46 124t-136 47h-159v-338z" />
<glyph unicode="&#x48e;" horiz-adv-x="1313" d="M180 0v1483h572q209 0 340.5 -133.5t131.5 -348.5q0 -218 -132 -353l120 -151l-140 -117l-132 166q-81 -34 -188 -34h-303v-512h-269zM449 719h263q40 0 82 10l-134 170l142 116l138 -176q34 68 33 147q0 126 -68 196t-189 70h-267v-533z" />
<glyph unicode="&#x48f;" horiz-adv-x="1294" d="M142 -418v1483h243v-79l-5 -75h5q4 6 11 18.5t37.5 44t65.5 54.5t97 42.5t131 19.5q215 0 344 -154.5t129 -403.5q0 -229 -120 -382l112 -136l-139 -120l-115 136q-102 -54 -226 -56q-92 0 -169 38t-108 76l-30 37h-4q6 -37 6 -91v-452h-265zM399 518q0 -136 73.5 -233 t202.5 -97q58 0 110 23l-137 167l139 121l130 -156q38 79 38 177q0 155 -76.5 249t-199.5 94q-121 0 -200.5 -85.5t-79.5 -259.5z" />
<glyph unicode="&#x490;" horiz-adv-x="1079" d="M180 0v1483h655v221h220v-452h-606v-1252h-269z" />
<glyph unicode="&#x491;" horiz-adv-x="893" d="M142 0v1065h508v213h207v-439h-450v-839h-265z" />
<glyph unicode="&#x492;" horiz-adv-x="1077" d="M67 622v191h123v670h852v-231h-584v-439h329v-191h-329v-622h-268v622h-123z" />
<glyph unicode="&#x493;" horiz-adv-x="899" d="M26 409v169h127v487h702v-226h-437v-261h263v-169h-263v-409h-265v409h-127z" />
<glyph unicode="&#x494;" horiz-adv-x="1307" d="M180 0v1483h854v-231h-585v-419q121 50 267 50q249 0 384.5 -152.5t135.5 -445.5q0 -339 -147 -503t-419 -164v217q132 0 208.5 99.5t76.5 350.5q0 187 -71 277t-230 90q-94 0 -205 -44v-608h-269z" />
<glyph unicode="&#x495;" horiz-adv-x="1083" d="M142 0v1065h725v-212h-460v-287q98 44 217 44q203 0 303.5 -128.5t100.5 -326.5q0 -380 -330 -590l-126 182q203 132 203 389q0 259 -211 259q-88 0 -157 -44v-351h-265z" />
<glyph unicode="&#x496;" horiz-adv-x="2044" d="M28 0l417 773v4l-387 706h291l317 -604h173v604h268v-604h173l318 604h290l-389 -706v-4l293 -541h219v-525h-239v293h-155l-337 648h-173v-648h-268v648h-173l-336 -648h-302z" />
<glyph unicode="&#x497;" horiz-adv-x="1730" d="M28 0l325 548v4l-299 513h276l236 -413h130v413h249v-413h129l236 413h275l-296 -513v-4l190 -323h213v-476h-238v251h-132l-244 428h-133v-428h-249v428h-134l-245 -428h-289z" />
<glyph unicode="&#x498;" horiz-adv-x="1162" d="M46 186l146 179q60 -64 150 -108t184 -44q122 0 192.5 61t70.5 167q0 96 -63.5 151.5t-171.5 55.5h-182v217h146q100 0 165 58.5t65 146.5q0 90 -59 147t-169 57q-169 0 -321 -125l-109 196q197 164 476 164q190 0 322.5 -109t132.5 -297q0 -220 -204 -330v-4 q115 -36 181.5 -125.5t66.5 -219.5q0 -171 -106 -287.5t-278 -148.5v-281h-242v279q-238 34 -393 200z" />
<glyph unicode="&#x499;" horiz-adv-x="960" d="M46 132l113 169q126 -121 269 -121q86 0 135 38.5t49 104.5q0 132 -177 132h-130v185h109q165 0 164 123q0 127 -158 126q-125 0 -257 -87l-85 169q161 119 392 119q163 0 268.5 -78.5t105.5 -213.5q0 -172 -146 -240v-4q179 -67 179 -245q0 -127 -78 -210t-207 -109 v-241h-233v235q-186 28 -313 148z" />
<glyph unicode="&#x49a;" horiz-adv-x="1425" d="M180 0v1483h269v-604h193l348 604h292l-419 -706v-4l311 -541h217v-525h-240v293h-148l-361 648h-193v-648h-269z" />
<glyph unicode="&#x49b;" horiz-adv-x="1228" d="M142 0v1065h265v-407h130l259 407h294l-338 -507v-4l225 -329h211v-476h-237v251h-126l-279 432h-139v-432h-265z" />
<glyph unicode="&#x49c;" horiz-adv-x="1549" d="M180 0v1483h269v-604h131v239h193v-239h86l347 604h291l-417 -706v-4l445 -773h-305l-361 648h-86v-243h-193v243h-131v-648h-269z" />
<glyph unicode="&#x49d;" horiz-adv-x="1326" d="M142 0v1065h265v-407h95v205h183v-205h31l259 407h295l-339 -507v-4l381 -554h-307l-280 432h-40v-209h-183v209h-95v-432h-265z" />
<glyph unicode="&#x49e;" horiz-adv-x="1340" d="M46 1088v182h140v213h269v-213h178v-182h-178v-209h193l349 604h292l-420 -706v-4l445 -773h-305l-361 648h-193v-648h-269v1088h-140z" />
<glyph unicode="&#x49f;" horiz-adv-x="1146" d="M14 1103v177h128v203h265v-203h211v-177h-211v-428h132l257 390h294l-336 -491v-4l378 -570h-305l-281 449h-139v-449h-265v1103h-128z" />
<glyph unicode="&#x4a0;" horiz-adv-x="1607" d="M34 1252v231h689v-604h194l347 604h293l-421 -706v-4l445 -773h-303l-361 648h-194v-648h-268v1252h-421z" />
<glyph unicode="&#x4a1;" horiz-adv-x="1300" d="M18 839v226h546v-407h130l259 407h292l-336 -507v-4l380 -554h-307l-282 432h-136v-432h-265v839h-281z" />
<glyph unicode="&#x4a2;" horiz-adv-x="1662" d="M180 0v1483h269v-628h679v628h267v-1251h218v-525h-240v293h-245v622h-679v-622h-269z" />
<glyph unicode="&#x4a3;" horiz-adv-x="1359" d="M142 0v1065h265v-411h456v411h265v-840h188v-476h-238v251h-215v430h-456v-430h-265z" />
<glyph unicode="&#x4a4;" horiz-adv-x="1967" d="M180 0v1483h269v-628h641v628h853v-231h-585v-1252h-268v622h-641v-622h-269z" />
<glyph unicode="&#x4a5;" horiz-adv-x="1547" d="M142 0v1065h265v-411h426v411h676v-226h-410v-839h-266v430h-426v-430h-265z" />
<glyph unicode="&#x4a6;" horiz-adv-x="2088" d="M180 0v1483h1058v-628q122 50 269 50q248 0 384 -156.5t136 -463.5q0 -666 -566 -667v217q131 0 207 99.5t76 350.5q0 207 -71 304.5t-228 97.5q-73 0 -207 -45v-642h-267v1254h-522v-1254h-269z" />
<glyph unicode="&#x4a7;" horiz-adv-x="1744" d="M142 0v1065h894v-427q102 47 220 47q201 0 317.5 -137t116.5 -356q0 -207 -89.5 -367t-240.5 -260l-128 182q203 138 203 433q0 284 -229 284q-94 0 -170 -44v-420h-265v839h-364v-839h-265z" />
<glyph unicode="&#x4a8;" horiz-adv-x="1963" d="M94 769q0 155 47 287t124.5 220t158 144.5t162.5 88.5l112 -243q-136 -58 -234.5 -186.5t-98.5 -321.5q0 -224 131.5 -380.5t376.5 -156.5q82 0 171 22q-288 247 -288 616q0 279 159 451.5t395 172.5q244 0 392.5 -168.5t148.5 -433.5q0 -175 -83.5 -343.5t-230.5 -299.5 q88 -19 191 -19h106v-219h-110q-220 0 -416 82q-214 -106 -439 -108q-339 0 -557 219t-218 576zM1034 863q0 -335 246 -512q134 94 213.5 235t79.5 293q0 165 -73 261t-192 96q-114 0 -194 -96t-80 -277z" />
<glyph unicode="&#x4a9;" horiz-adv-x="1662" d="M78 552q0 209 113.5 345.5t266.5 192.5l92 -213q-96 -44 -161.5 -129.5t-65.5 -201.5q0 -146 97.5 -253t289.5 -107q71 0 138 15q-216 169 -215 429q0 194 132 327t340 133q207 0 329.5 -121t122.5 -301q0 -247 -237 -459q56 -8 129 -8h126v-201h-112q-190 0 -364 64 q-190 -90 -391 -90q-291 0 -460.5 161.5t-169.5 416.5zM881 638q0 -222 199 -343q228 140 228 357q0 106 -55.5 169.5t-153.5 63.5q-100 0 -159 -69.5t-59 -177.5z" />
<glyph unicode="&#x4aa;" horiz-adv-x="1495" d="M94 748q0 325 215 543t548 218q338 0 547 -203l-130 -201q-82 69 -191.5 113t-213.5 44q-234 0 -365.5 -146.5t-131.5 -363.5q0 -220 134 -375.5t365 -155.5q238 0 431 188l141 -194q-205 -209 -492 -235v-273h-243v281q-280 48 -447 257.5t-167 502.5z" />
<glyph unicode="&#x4ab;" horiz-adv-x="1144" d="M78 532q0 234 159.5 396t418.5 162q115 0 225.5 -39.5t183.5 -119.5l-118 -181q-116 115 -277 115q-144 0 -233.5 -95t-89.5 -235t91.5 -237t240.5 -97q174 0 313 136l102 -189q-127 -138 -344 -166v-233h-234v241q-201 40 -319.5 189.5t-118.5 352.5z" />
<glyph unicode="&#x4ac;" horiz-adv-x="1307" d="M28 1252v231h1240v-231h-487v-1020h218v-525h-241v293h-246l2 4v1248h-486z" />
<glyph unicode="&#x4ad;" horiz-adv-x="1058" d="M40 839v226h967v-226h-353v-614h188v-476h-238v251h-213v839h-351z" />
<glyph unicode="&#x4ae;" horiz-adv-x="1238" d="M-8 1483h305l231 -436l90 -199h4q44 106 90 199l230 436h305l-493 -863v-620h-267v620z" />
<glyph unicode="&#x4af;" horiz-adv-x="1129" d="M23 1065h278l221 -607l40 -157h4q18 92 40 157l221 607h280l-409 -1035v-448h-263v448z" />
<glyph unicode="&#x4b0;" horiz-adv-x="1238" d="M-8 1483h305l231 -436l90 -199h4q44 106 90 199l230 436h305l-482 -841h242v-193h-253v-449h-267v449h-240v193h227z" />
<glyph unicode="&#x4b1;" horiz-adv-x="1127" d="M23 1065h280l219 -607l40 -157h4q18 92 40 157l219 607h280l-347 -881h187v-184h-247v-418h-263v418h-247v184h184z" />
<glyph unicode="&#x4b2;" horiz-adv-x="1390" d="M28 0l459 752l-443 731h307l205 -363l92 -182h4q42 94 92 182l207 363h307l-445 -731l319 -520h226v-525h-242v293h-143l-231 399l-92 175h-4q-42 -90 -90 -175l-231 -399h-297z" />
<glyph unicode="&#x4b3;" horiz-adv-x="1158" d="M32 0l350 539l-342 526h301l165 -290l33 -67h4q20 40 35 67l166 290h300l-342 -526l205 -314h207v-476h-239v251h-117l-184 309l-31 56h-4q-15 -33 -29 -56l-185 -309h-293z" />
<glyph unicode="&#x4b4;" horiz-adv-x="1906" d="M34 1252v231h1108v-231h-419v-1020h664v1251h267v-1251h197v-525h-240v293h-1156v1252h-421z" />
<glyph unicode="&#x4b5;" horiz-adv-x="1555" d="M42 839v226h847v-226h-291v-614h480v840h265v-840h164v-474h-241v249h-933v839h-291z" />
<glyph unicode="&#x4b6;" horiz-adv-x="1463" d="M96 997v486h273v-426q0 -261 249 -261q169 0 305 87v600h274v-1251h217v-525h-240v293h-251v574l4 70h-4q-179 -92 -373 -92q-228 0 -341 115.5t-113 329.5z" />
<glyph unicode="&#x4b7;" horiz-adv-x="1228" d="M80 708v357h261v-313q0 -178 181 -178q111 0 207 68v423h263v-840h192v-476h-235v251h-220v363l2 59h-4q-125 -69 -288.5 -69t-261 88.5t-97.5 266.5z" />
<glyph unicode="&#x4b8;" horiz-adv-x="1428" d="M92 1007v476h273v-426q0 -238 213 -259v286h193v-273q119 23 202 72v600h274v-1483h-274v584l4 70h-4q-90 -40 -202 -70v-235h-193v213h-4q-242 0 -362 116t-120 329z" />
<glyph unicode="&#x4b9;" horiz-adv-x="1214" d="M80 708v357h261v-313q0 -140 139 -172v247h184v-243q82 17 145 58v423h265v-1065h-265v378l4 57h-4q-64 -34 -145 -50v-191h-184v165h-14q-173 0 -279.5 86.5t-106.5 262.5z" />
<glyph unicode="&#x4ba;" horiz-adv-x="1334" d="M180 0v1483h269v-545l-4 -69h4q175 86 366 86q213 0 317 -122.5t104 -333.5v-499h-273v458q0 259 -234 258q-155 0 -280 -78v-638h-269z" />
<glyph unicode="&#x4bb;" horiz-adv-x="1278" d="M142 0v1483h265v-518l-6 -90h4q44 86 143.5 150.5t226.5 64.5q373 0 371 -405v-685h-265v630q0 106 -36 162t-131 56q-138 0 -222.5 -99t-84.5 -254v-495h-265z" />
<glyph unicode="&#x4bc;" horiz-adv-x="1864" d="M67 1084q0 113 17 180l16 75h241l-18 -77q-16 -78 -16 -148q0 -215 157 -215q44 279 231.5 444.5t442.5 165.5q295 0 462.5 -191.5t167.5 -508.5l-10 -119h-1025q13 -212 143.5 -340.5t325.5 -128.5q137 0 252 56t173 110l127 -205q-223 -208 -586 -208 q-297 0 -499.5 201t-217.5 517q-178 0 -281 99t-103 293zM735 899h760q0 161 -91.5 266t-265.5 105q-167 0 -276.5 -113t-126.5 -258z" />
<glyph unicode="&#x4bd;" horiz-adv-x="1451" d="M56 829q0 74 22 151h211q-24 -69 -24 -136q0 -164 104 -180q40 194 182.5 310t347.5 116q221 0 346 -143t125 -363l-8 -102h-734q13 -133 103 -207t218 -74q75 0 151 29t116 59l38 28l104 -189q-6 -7 -19 -17.5t-55.5 -36.5t-90 -46t-119 -37t-145.5 -17 q-243 0 -397 145.5t-173 362.5q-303 7 -303 347zM635 664h468q-2 102 -61.5 161.5t-150.5 59.5q-99 0 -168 -60.5t-88 -160.5z" />
<glyph unicode="&#x4be;" horiz-adv-x="1866" d="M67 1084q0 113 17 180l16 75h241l-18 -77q-16 -78 -16 -148q0 -215 157 -215q44 279 231.5 444.5t442.5 165.5q295 0 462.5 -191.5t167.5 -508.5l-10 -119h-1025q13 -212 143.5 -340.5t325.5 -128.5q137 0 252 56t173 110l127 -205q-193 -178 -494 -202v-273h-241v283 q-241 50 -397 240t-171 462q-178 0 -281 99t-103 293zM735 899h760q0 161 -91.5 266t-265.5 105q-167 0 -276.5 -113t-126.5 -258z" />
<glyph unicode="&#x4bf;" horiz-adv-x="1451" d="M56 829q0 74 22 151h211q-24 -69 -24 -136q0 -164 104 -180q40 194 182.5 310t347.5 116q221 0 346 -143t125 -363l-8 -102h-734q13 -133 103 -207t218 -74q75 0 151 29t116 59l38 28l104 -189q-15 -15 -44 -37t-123.5 -62.5t-193.5 -48.5v-231h-234v247 q-173 46 -281 178.5t-123 307.5q-303 7 -303 347zM635 664h468q-2 102 -61.5 161.5t-150.5 59.5q-99 0 -168 -60.5t-88 -160.5z" />
<glyph unicode="&#x4c0;" horiz-adv-x="626" d="M180 0v1483h265v-1483h-265z" />
<glyph unicode="&#x4c1;" horiz-adv-x="1946" d="M28 0l417 773v4l-387 706h291l317 -604h173v604h268v-604h173l318 604h290l-389 -706v-4l421 -773h-303l-337 648h-173v-648h-268v648h-173l-336 -648h-302zM640 1838v28h202v-28q0 -62 41.5 -97t98 -35t99.5 35t43 99v26h200v-28q0 -132 -100 -210t-242.5 -78t-242 78 t-99.5 210z" />
<glyph unicode="&#x4c2;" horiz-adv-x="1639" d="M28 0l325 548v4l-299 513h276l236 -413h130v413h249v-413h129l236 413h275l-296 -513v-4l326 -548h-293l-244 428h-133v-428h-249v428h-134l-245 -428h-289zM476 1456v27h203v-27q0 -63 42 -97.5t98 -34.5t99 34.5t43 100.5v24h201v-27q0 -132 -100.5 -210t-242.5 -78 t-242.5 78t-100.5 210z" />
<glyph unicode="&#x4c3;" horiz-adv-x="1371" d="M180 0v1483h269v-604h193l348 604h292l-385 -652q173 -46 276 -197.5t103 -368.5q0 -291 -141 -469t-395 -178v225q108 0 181 94.5t73 307.5q0 199 -102.5 304t-305.5 105h-137v-654h-269z" />
<glyph unicode="&#x4c4;" horiz-adv-x="1154" d="M142 0v1065h265v-409h130l259 409h294l-315 -473v-6q161 -54 231 -181.5t70 -281.5q0 -196 -98.5 -338t-235.5 -220l-124 184q205 104 205 374q0 142 -81.5 224.5t-237.5 82.5h-97v-430h-265z" />
<glyph unicode="&#x4c5;" horiz-adv-x="1551" d="M30 -16v246q167 23 243 222.5t76 625.5v405h917v-1251h251v-146l-165 -379h-188l81 293h-248v1252h-391v-178q0 -548 -135.5 -814t-440.5 -276z" />
<glyph unicode="&#x4c6;" horiz-adv-x="1290" d="M42 -10v233q108 15 165.5 129t57.5 379v334h777v-842h208v-139l-145 -335h-178l70 251h-220v851h-259v-120q0 -363 -110.5 -548t-365.5 -193z" />
<glyph unicode="&#x4c7;" horiz-adv-x="1574" d="M180 0v1483h269v-628h679v628h267l2 -1337q0 -165 -42.5 -279t-117.5 -166t-152.5 -72t-169.5 -14v228q213 0 213 297v482h-679v-622h-269z" />
<glyph unicode="&#x4c8;" horiz-adv-x="1271" d="M142 0v1065h265v-411h456v411h265v-948q0 -207 -80.5 -329.5t-245.5 -222.5l-138 188q100 58 149.5 137.5t49.5 224.5v315h-456v-430h-265z" />
<glyph unicode="&#x4c9;" horiz-adv-x="1680" d="M180 0v1483h269v-628h679v628h267v-1251h251v-146l-165 -379h-188l82 293h-247v622h-679v-622h-269z" />
<glyph unicode="&#x4ca;" horiz-adv-x="1375" d="M142 0v1065h265v-411h456v411h265v-842h207v-139l-145 -335h-177l69 251h-219v430h-456v-430h-265z" />
<glyph unicode="&#x4cb;" horiz-adv-x="1375" d="M96 997v486h273v-426q0 -261 249 -261q169 0 305 87v600h274v-1483h-250v-293h-243v525h219v342l4 70h-4q-179 -92 -373 -92q-228 0 -341 115.5t-113 329.5z" />
<glyph unicode="&#x4cc;" horiz-adv-x="1138" d="M78 729v336h261v-292q0 -177 175 -177q115 0 217 66v403h266v-1065h-216v-251h-238v422h188v228l2 56h-2q-137 -76 -313 -75q-155 0 -247.5 88t-92.5 261z" />
<glyph unicode="&#x4cd;" horiz-adv-x="1917" d="M123 0l122 1483h285l293 -733l74 -218h4q39 130 72 218l293 733h286l102 -1251h251v-146l-165 -379h-186l80 293h-230l-61 829q-4 44 -4 101.5t2 93.5v35h-4q-48 -144 -81 -230l-241 -574h-234l-240 574l-81 232h-5q6 -134 -2 -232l-60 -829h-270z" />
<glyph unicode="&#x4ce;" horiz-adv-x="1674" d="M98 0l96 1065h301l226 -549l52 -136h4q30 76 52 136l230 549h297l75 -842h221v-139l-143 -335h-180l68 251h-200l-37 576l2 182h-4q-30 -80 -64 -154l-209 -470h-219l-208 468l-65 156h-4l2 -182l-38 -576h-255z" />
<glyph unicode="&#x4cf;" horiz-adv-x="548" d="M142 0v1483h265v-1483h-265z" />
<glyph unicode="&#x4d0;" horiz-adv-x="1357" d="M16 0l521 1483h284l520 -1483h-276l-127 380h-520l-125 -380h-277zM333 1838v28h201v-28q0 -62 42 -97t98.5 -35t99.5 35t43 99v26h200v-28q0 -132 -100 -210t-242.5 -78t-242 78t-99.5 210zM484 600h387l-131 397l-59 229h-4q-33 -146 -59 -229z" />
<glyph unicode="&#x4d1;" horiz-adv-x="1120" d="M60 295q0 113 62 192t163.5 116t196 51t199.5 14h46v15q0 188 -201 188q-146 0 -296 -102l-98 190q69 54 186 92.5t232 38.5q209 0 325.5 -111.5t116.5 -312.5v-666h-246v90l6 77h-4q-50 -85 -140 -139t-197 -54q-148 0 -249.5 89.5t-101.5 231.5zM238 1456v27h203v-27 q0 -63 41.5 -97.5t98.5 -34.5t99.5 34.5t42.5 100.5v24h200v-27q0 -132 -100 -210t-242 -78t-242.5 78t-100.5 210zM323 317q0 -56 43 -98t118 -42q107 0 176 88t69 193v29h-46q-360 0 -360 -170z" />
<glyph unicode="&#x4d2;" horiz-adv-x="1357" d="M16 0l521 1483h284l520 -1483h-276l-127 380h-520l-125 -380h-277zM385 1623v243h205v-243h-205zM484 600h387l-131 397l-59 229h-4q-33 -146 -59 -229zM769 1623v243h202v-243h-202z" />
<glyph unicode="&#x4d3;" horiz-adv-x="1120" d="M60 295q0 113 62 192t163.5 116t196 51t199.5 14h46v15q0 188 -201 188q-146 0 -296 -102l-98 190q69 54 186 92.5t232 38.5q209 0 325.5 -111.5t116.5 -312.5v-666h-246v90l6 77h-4q-50 -85 -140 -139t-197 -54q-148 0 -249.5 89.5t-101.5 231.5zM263 1241v242h205v-242 h-205zM323 317q0 -56 43 -98t118 -42q107 0 176 88t69 193v29h-46q-360 0 -360 -170zM648 1241v242h203v-242h-203z" />
<glyph unicode="&#x4d4;" horiz-adv-x="1890" d="M2 0l614 1483h1158v-231h-621v-389h499v-233h-499v-398h651v-232h-919v635h-355l-248 -635h-280zM616 855h269v397h-110z" />
<glyph unicode="&#x4d5;" horiz-adv-x="1794" d="M60 307q0 361 632 361h35v15q0 188 -207 188q-146 0 -293 -102l-97 188q69 58 182.5 95.5t226.5 37.5q248 0 346 -157h4q128 157 356 157q218 0 344 -144t126 -364q0 -18 -3.5 -53.5t-3.5 -44.5h-728q12 -137 99 -210t214 -73q168 0 307 114l102 -187q-75 -70 -194 -112 t-234 -42q-305 0 -445 235h-4q-12 -27 -36 -58.5t-71.5 -74t-124.5 -71t-169 -28.5q-153 0 -258.5 90t-105.5 240zM328 319q0 -58 41.5 -97.5t121.5 -39.5q102 0 171 88.5t69 193.5v20h-75q-84 0 -150.5 -11t-122 -51.5t-55.5 -102.5zM988 668h459q-2 98 -61.5 156.5 t-142.5 58.5q-102 0 -168 -56.5t-87 -158.5z" />
<glyph unicode="&#x4d6;" horiz-adv-x="1188" d="M180 0v1483h888v-231h-619v-389h500v-233h-500v-398h652v-232h-921zM293 1838v28h202v-28q0 -62 41.5 -97t98.5 -35t99.5 35t42.5 99v26h200v-28q0 -132 -100 -210t-242 -78t-242 78t-100 210z" />
<glyph unicode="&#x4d7;" horiz-adv-x="1170" d="M78 532q0 247 151 402.5t391 155.5q222 0 347 -143t125 -363q0 -35 -8 -102h-733q12 -133 102 -207t217 -74q159 0 305 116l105 -189q-79 -72 -195 -113t-233 -41q-257 0 -415.5 162.5t-158.5 395.5zM267 1456v27h203v-27q0 -63 42 -97.5t98 -34.5t99 34.5t43 100.5v24 h201v-27q0 -132 -100.5 -210t-242.5 -78t-242.5 78t-100.5 210zM357 664h470q-2 104 -61.5 164.5t-151.5 60.5q-100 0 -169.5 -61.5t-87.5 -163.5z" />
<glyph unicode="&#x4d8;" horiz-adv-x="1511" d="M96 704l8 129h1030q-16 192 -137.5 310.5t-311.5 118.5q-141 0 -258.5 -52t-175.5 -105l-130 201q236 203 598 203q311 0 505.5 -223t194.5 -542q0 -337 -189.5 -553.5t-494.5 -216.5q-300 0 -469.5 194.5t-169.5 535.5zM367 624q0 -194 94.5 -302.5t280.5 -108.5 q175 0 280.5 113t109.5 298h-765z" />
<glyph unicode="&#x4d9;" horiz-adv-x="1170" d="M78 493l8 115h737q-14 125 -99.5 197t-205.5 72q-79 0 -160 -28t-120 -55l-41 -29l-99 184q213 141 454 141q249 0 395.5 -158.5t146.5 -399.5q0 -250 -148 -404t-386 -154q-230 0 -356 143.5t-126 375.5zM353 428q2 -125 61.5 -186.5t151.5 -61.5q104 0 175.5 64.5 t73.5 183.5h-462z" />
<glyph unicode="&#x4da;" horiz-adv-x="1511" d="M96 704l8 129h1030q-16 192 -137.5 310.5t-311.5 118.5q-141 0 -258.5 -52t-175.5 -105l-130 201q236 203 598 203q311 0 505.5 -223t194.5 -542q0 -337 -189.5 -553.5t-494.5 -216.5q-300 0 -469.5 194.5t-169.5 535.5zM367 624q0 -194 94.5 -302.5t280.5 -108.5 q175 0 280.5 113t109.5 298h-765zM441 1623v243h205v-243h-205zM825 1623v243h203v-243h-203z" />
<glyph unicode="&#x4db;" horiz-adv-x="1170" d="M78 493l8 115h737q-14 125 -99.5 197t-205.5 72q-79 0 -160 -28t-120 -55l-41 -29l-99 184q213 141 454 141q249 0 395.5 -158.5t146.5 -399.5q0 -250 -148 -404t-386 -154q-230 0 -356 143.5t-126 375.5zM257 1241v242h205v-242h-205zM353 428q2 -125 61.5 -186.5 t151.5 -61.5q104 0 175.5 64.5t73.5 183.5h-462zM642 1241v242h202v-242h-202z" />
<glyph unicode="&#x4dc;" horiz-adv-x="1946" d="M28 0l417 773v4l-387 706h291l317 -604h173v604h268v-604h173l318 604h290l-389 -706v-4l421 -773h-303l-337 648h-173v-648h-268v648h-173l-336 -648h-302zM687 1623v243h204v-243h-204zM1072 1623v243h202v-243h-202z" />
<glyph unicode="&#x4dd;" horiz-adv-x="1639" d="M28 0l325 548v4l-299 513h276l236 -413h130v413h249v-413h129l236 413h275l-296 -513v-4l326 -548h-293l-244 428h-133v-428h-249v428h-134l-245 -428h-289zM526 1241v242h205v-242h-205zM911 1241v242h203v-242h-203z" />
<glyph unicode="&#x4de;" horiz-adv-x="1158" d="M46 186l146 179q60 -64 150 -108t184 -44q122 0 192.5 61t70.5 167q0 96 -63.5 151.5t-171.5 55.5h-182v217h146q100 0 165 58.5t65 146.5q0 90 -59 147t-169 57q-169 0 -321 -125l-109 196q197 164 476 164q190 0 322.5 -109t132.5 -297q0 -220 -204 -330v-4 q115 -36 181.5 -125.5t66.5 -219.5q0 -205 -147 -327.5t-366 -122.5q-142 0 -277 56t-229 156zM271 1623v243h205v-243h-205zM656 1623v243h203v-243h-203z" />
<glyph unicode="&#x4df;" horiz-adv-x="955" d="M46 132l113 169q126 -121 269 -121q86 0 135 38.5t49 104.5q0 132 -177 132h-130v185h109q165 0 164 123q0 127 -158 126q-125 0 -257 -87l-85 169q161 119 392 119q163 0 268.5 -78.5t105.5 -213.5q0 -172 -146 -240v-4q179 -67 179 -245q0 -159 -118.5 -247t-300.5 -88 q-245 0 -412 158zM163 1241v242h204v-242h-204zM548 1241v242h202v-242h-202z" />
<glyph unicode="&#x4e0;" horiz-adv-x="1112" d="M64 102l86 195q60 -42 151.5 -70t174.5 -28q130 0 207 64.5t77 168.5q0 88 -48 136t-152 62q-38 4 -326 5v174l350 375q19 19 41.5 38t34.5 28l15 10v4q-56 -6 -127 -6h-450v225h875v-209l-371 -383l-61 -49v-5q117 -6 180 -20q301 -64 300 -378q0 -216 -151 -337.5 t-379 -121.5q-241 0 -427 122z" />
<glyph unicode="&#x4e1;" horiz-adv-x="1031" d="M14 -315l86 194q60 -42 151.5 -70t174.5 -28q130 0 207 64.5t77 168.5q0 88 -48 136.5t-152 62.5q-38 4 -326 4v174l350 376q19 18 41.5 37t34.5 27l14 11v4q-56 -7 -127 -7h-449v226h875v-208l-371 -383l-61 -50v-4q117 -6 179 -21q301 -64 301 -379q0 -215 -151.5 -337 t-378.5 -122q-241 0 -427 124z" />
<glyph unicode="&#x4e2;" horiz-adv-x="1572" d="M180 0v1483h269v-857l-14 -229h4q71 144 125 231l560 855h267v-1483h-267v855l14 229h-4q-69 -142 -123 -229l-564 -855h-267zM539 1636v182h547v-182h-547z" />
<glyph unicode="&#x4e3;" horiz-adv-x="1265" d="M142 0v1065h253v-570q0 -78 -6 -128h4q8 19 79 128l395 570h257v-1065h-253v568q0 46 6 128h-4q-6 -15 -79 -128l-395 -568h-257zM369 1254v181h548v-181h-548z" />
<glyph unicode="&#x4e4;" horiz-adv-x="1572" d="M180 0v1483h269v-857l-14 -229h4q71 144 125 231l560 855h267v-1483h-267v855l14 229h-4q-69 -142 -123 -229l-564 -855h-267zM495 1623v243h205v-243h-205zM879 1623v243h203v-243h-203z" />
<glyph unicode="&#x4e5;" horiz-adv-x="1265" d="M142 0v1065h253v-570q0 -78 -6 -128h4q8 19 79 128l395 570h257v-1065h-253v568q0 46 6 128h-4q-6 -15 -79 -128l-395 -568h-257zM345 1241v242h205v-242h-205zM729 1241v242h202v-242h-202z" />
<glyph unicode="&#x4e6;" horiz-adv-x="1716" d="M92 752q0 321 216 539t550 218t550.5 -217.5t216.5 -539.5q0 -331 -216.5 -554.5t-550.5 -223.5t-550 223.5t-216 554.5zM369 752q0 -228 139.5 -379.5t350.5 -151.5t349.5 151.5t138.5 379.5q0 217 -138.5 363.5t-349.5 146.5t-350.5 -146.5t-139.5 -363.5zM562 1623 v243h205v-243h-205zM947 1623v243h202v-243h-202z" />
<glyph unicode="&#x4e7;" horiz-adv-x="1323" d="M78 533q0 242 169 399.5t413 157.5q247 0 417 -157.5t170 -399.5t-169 -400.5t-415.5 -158.5t-415.5 158.5t-169 400.5zM347 532q0 -145 90.5 -238t224.5 -93t226 93t92 238q0 144 -93 238.5t-225 94.5t-223.5 -94.5t-91.5 -238.5zM369 1241v242h205v-242h-205zM754 1241 v242h203v-242h-203z" />
<glyph unicode="&#x4e8;" horiz-adv-x="1716" d="M92 752q0 319 219 538t547 219t547.5 -218.5t219.5 -538.5q0 -331 -219.5 -554.5t-547.5 -223.5t-547 223.5t-219 554.5zM372 642q36 -190 170.5 -310.5t318.5 -120.5q181 0 316 121t168 310h-973zM372 851h975q-33 183 -169 300t-317 117q-186 0 -322 -117t-167 -300z " />
<glyph unicode="&#x4e9;" horiz-adv-x="1323" d="M78 533q0 242 169 399.5t413 157.5q247 0 417 -157.5t170 -399.5t-169 -400.5t-415.5 -158.5t-415.5 158.5t-169 400.5zM325 460q21 -130 116.5 -209.5t222.5 -79.5q123 0 218 79.5t119 209.5h-676zM328 616h671q-28 124 -121 199.5t-214 75.5q-125 0 -218 -74.5 t-118 -200.5z" />
<glyph unicode="&#x4ea;" horiz-adv-x="1716" d="M92 752q0 319 219 538t547 219t547.5 -218.5t219.5 -538.5q0 -331 -219.5 -554.5t-547.5 -223.5t-547 223.5t-219 554.5zM372 642q36 -190 170.5 -310.5t318.5 -120.5q181 0 316 121t168 310h-973zM372 851h975q-33 183 -169 300t-317 117q-186 0 -322 -117t-167 -300z M564 1623v243h205v-243h-205zM949 1623v243h202v-243h-202z" />
<glyph unicode="&#x4eb;" horiz-adv-x="1323" d="M78 533q0 242 169 399.5t413 157.5q247 0 417 -157.5t170 -399.5t-169 -400.5t-415.5 -158.5t-415.5 158.5t-169 400.5zM325 460q21 -130 116.5 -209.5t222.5 -79.5q123 0 218 79.5t119 209.5h-676zM328 616h671q-28 124 -121 199.5t-214 75.5q-125 0 -218 -74.5 t-118 -200.5zM365 1241v242h205v-242h-205zM750 1241v242h203v-242h-203z" />
<glyph unicode="&#x4ec;" horiz-adv-x="1495" d="M58 203l136 190q81 -78 198.5 -126t242.5 -48q197 0 326 117t157 297h-711v220h713q-24 179 -155.5 295t-326.5 116q-230 0 -423 -168l-129 203q100 102 248 156t312 54q340 0 549 -217.5t209 -541.5q0 -333 -217.5 -554.5t-551.5 -221.5q-339 2 -577 229zM387 1623v243 h205v-243h-205zM771 1623v243h202v-243h-202z" />
<glyph unicode="&#x4ed;" horiz-adv-x="1140" d="M50 132l98 183q136 -129 322 -129q132 0 222.5 71t114.5 186h-466v181h466q-21 116 -111 185.5t-216 69.5q-169 0 -296 -114l-113 177q74 74 186 111t234 37q257 0 414.5 -161.5t157.5 -396.5q0 -237 -159.5 -397.5t-419 -160.5t-434.5 158zM238 1241v242h205v-242h-205z M622 1241v242h203v-242h-203z" />
<glyph unicode="&#x4ee;" horiz-adv-x="1278" d="M-6 1483h297l315 -662l84 -197h4q27 98 60 195l238 664h282l-457 -1172q-28 -69 -57 -121t-74.5 -104t-108.5 -82t-140 -30q-151 2 -297 104l119 201q94 -73 167 -72q98 0 148 130zM369 1636v182h548v-182h-548z" />
<glyph unicode="&#x4ef;" horiz-adv-x="1138" d="M8 1065h299l223 -614l40 -144h4q19 84 36 140l209 618h288l-474 -1226q-52 -140 -155.5 -209t-228.5 -69q-56 0 -111.5 17t-83.5 33l-26 20l87 198q58 -44 117 -44q127 0 186 137l40 94zM297 1254v181h547v-181h-547z" />
<glyph unicode="&#x4f0;" horiz-adv-x="1278" d="M-6 1483h297l315 -662l84 -197h4q27 98 60 195l238 664h282l-457 -1172q-28 -69 -57 -121t-74.5 -104t-108.5 -82t-140 -30q-151 2 -297 104l119 201q94 -73 167 -72q98 0 148 130zM361 1623v243h205v-243h-205zM746 1623v243h203v-243h-203z" />
<glyph unicode="&#x4f1;" horiz-adv-x="1138" d="M8 1065h299l223 -614l40 -144h4q19 84 36 140l209 618h288l-474 -1226q-52 -140 -155.5 -209t-228.5 -69q-56 0 -111.5 17t-83.5 33l-26 20l87 198q58 -44 117 -44q127 0 186 137l40 94zM275 1241v242h205v-242h-205zM660 1241v242h203v-242h-203z" />
<glyph unicode="&#x4f2;" horiz-adv-x="1278" d="M-6 1483h297l315 -662l84 -197h4q27 98 60 195l238 664h282l-457 -1172q-28 -69 -57 -121t-74.5 -104t-108.5 -82t-140 -30q-151 2 -297 104l119 201q94 -73 167 -72q98 0 148 130zM357 1581l149 285h225l-155 -285h-219zM723 1581l158 285h261l-217 -285h-202z" />
<glyph unicode="&#x4f3;" horiz-adv-x="1138" d="M8 1065h299l223 -614l40 -144h4q19 84 36 140l209 618h288l-474 -1226q-52 -140 -155.5 -209t-228.5 -69q-56 0 -111.5 17t-83.5 33l-26 20l87 198q58 -44 117 -44q127 0 186 137l40 94zM263 1200l148 283h227l-156 -283h-219zM628 1200l159 283h262l-218 -283h-203z" />
<glyph unicode="&#x4f4;" horiz-adv-x="1378" d="M96 997v486h273v-426q0 -261 249 -261q169 0 305 87v600h274v-1483h-274v574l4 70h-4q-179 -92 -373 -92q-228 0 -341 115.5t-113 329.5zM367 1623v243h205v-243h-205zM752 1623v243h203v-243h-203z" />
<glyph unicode="&#x4f5;" horiz-adv-x="1136" d="M80 708v357h261v-313q0 -178 181 -178q111 0 207 68v423h263v-1065h-263v363l2 59h-4q-125 -69 -288.5 -69t-261 88.5t-97.5 266.5zM251 1241v242h204v-242h-204zM635 1241v242h202v-242h-202z" />
<glyph unicode="&#x4f6;" horiz-adv-x="1064" d="M180 0v1483h852v-231h-583v-1020h217v-525h-240v293h-246z" />
<glyph unicode="&#x4f7;" horiz-adv-x="889" d="M142 0v1065h700v-226h-435v-614h189v-476h-239v251h-215z" />
<glyph unicode="&#x4f8;" horiz-adv-x="1829" d="M180 0v1483h269v-520h276q207 0 335 -132.5t128 -352.5q0 -213 -127.5 -345.5t-329.5 -132.5h-551zM449 232h234q112 0 172 65.5t60 181t-63 184t-173 68.5h-230v-499zM620 1623v243h205v-243h-205zM1005 1623v243h203v-243h-203zM1381 0v1483h267v-1483h-267z" />
<glyph unicode="&#x4f9;" horiz-adv-x="1551" d="M142 0v1065h265v-365h191q189 0 295 -91t106 -262q0 -161 -100.5 -254t-302.5 -93h-454zM407 182h147q88 0 132.5 45.5t44.5 121.5q0 77 -45.5 124t-135.5 47h-143v-338zM480 1241v242h205v-242h-205zM865 1241v242h203v-242h-203zM1144 0v1065h266v-1065h-266z" />
<glyph unicode="&#x2000;" horiz-adv-x="942" />
<glyph unicode="&#x2001;" horiz-adv-x="1884" />
<glyph unicode="&#x2002;" horiz-adv-x="942" />
<glyph unicode="&#x2003;" horiz-adv-x="1884" />
<glyph unicode="&#x2004;" horiz-adv-x="628" />
<glyph unicode="&#x2005;" horiz-adv-x="471" />
<glyph unicode="&#x2006;" horiz-adv-x="314" />
<glyph unicode="&#x2007;" horiz-adv-x="314" />
<glyph unicode="&#x2008;" horiz-adv-x="235" />
<glyph unicode="&#x2009;" horiz-adv-x="376" />
<glyph unicode="&#x200a;" horiz-adv-x="104" />
<glyph unicode="&#x2010;" horiz-adv-x="901" d="M138 480v232h627v-232h-627z" />
<glyph unicode="&#x2011;" horiz-adv-x="901" d="M138 480v232h627v-232h-627z" />
<glyph unicode="&#x2012;" horiz-adv-x="901" d="M138 480v232h627v-232h-627z" />
<glyph unicode="&#x2013;" horiz-adv-x="1439" d="M142 493v207h1155v-207h-1155z" />
<glyph unicode="&#x2014;" horiz-adv-x="1856" d="M142 493v207h1573v-207h-1573z" />
<glyph unicode="&#x2018;" horiz-adv-x="546" d="M108 1053l157 456h186l-98 -456h-245z" />
<glyph unicode="&#x2019;" horiz-adv-x="532" d="M119 1053l98 456h245l-157 -456h-186z" />
<glyph unicode="&#x201a;" horiz-adv-x="552" d="M84 -186l100 455h236l-155 -455h-181z" />
<glyph unicode="&#x201c;" horiz-adv-x="889" d="M108 1053l157 456h188l-100 -456h-245zM449 1053l157 456h188l-98 -456h-247z" />
<glyph unicode="&#x201d;" horiz-adv-x="875" d="M119 1053l98 456h245l-155 -456h-188zM460 1053l98 456h246l-156 -456h-188z" />
<glyph unicode="&#x201e;" horiz-adv-x="885" d="M84 -186l100 455h236l-155 -455h-181zM418 -186l98 455h238l-156 -455h-180z" />
<glyph unicode="&#x2020;" horiz-adv-x="943" d="M84 859v206h259v418h255v-418h263v-206h-263v-963h-255v963h-259z" />
<glyph unicode="&#x2021;" horiz-adv-x="1002" d="M113 341v205h259v313h-259v206h259v418h254v-418h263v-206h-263v-313h263v-205h-263v-445h-254v445h-259z" />
<glyph unicode="&#x2022;" horiz-adv-x="1031" d="M167 608q0 144 102.5 246.5t246.5 102.5q146 0 247.5 -102.5t101.5 -246.5t-101.5 -246.5t-247.5 -102.5q-144 0 -246.5 102.5t-102.5 246.5z" />
<glyph unicode="&#x2026;" horiz-adv-x="1722" d="M138 0v267h257v-267h-257zM733 0v267h257v-267h-257zM1326 0v267h259v-267h-259z" />
<glyph unicode="&#x202f;" horiz-adv-x="376" />
<glyph unicode="&#x2030;" horiz-adv-x="2437" d="M96 1178q0 136 100.5 233.5t240.5 97.5q141 0 241.5 -97.5t100.5 -233.5q0 -138 -100.5 -234t-242 -96t-241 96t-99.5 234zM150 0l1137 1483h244l-1138 -1483h-243zM299 1178q0 -58 39.5 -98t98 -40t99 40t40.5 98q0 56 -40.5 97t-99 41t-98 -41t-39.5 -97zM907 303 q0 136 99 233t241 97q140 0 241.5 -97t101.5 -233t-100.5 -232.5t-242.5 -96.5t-241 96.5t-99 232.5zM1109 305q0 -58 39.5 -98t98.5 -40t99.5 40t40.5 98q0 56 -40.5 97t-99.5 41t-98.5 -41t-39.5 -97zM1686 303q0 136 100 233t240 97t241 -97t101 -233t-99.5 -232.5 t-242 -96.5t-241.5 96.5t-99 232.5zM1888 305q0 -58 40 -98t98.5 -40t99 40t40.5 98q0 56 -40.5 97t-99 41t-98.5 -41t-40 -97z" />
<glyph unicode="&#x2039;" horiz-adv-x="778" d="M84 590l342 429h253l-342 -429l342 -429h-253z" />
<glyph unicode="&#x203a;" horiz-adv-x="778" d="M100 161l343 429l-343 429h253l343 -429l-343 -429h-253z" />
<glyph unicode="&#x2044;" horiz-adv-x="375" d="M-259 0l702 1483h192l-699 -1483h-195z" />
<glyph unicode="&#x205f;" horiz-adv-x="471" />
<glyph unicode="&#x20ac;" d="M54 522v159h117q-10 52 -2 130h-115v160h145q69 238 264 388t450 150q104 0 223 -28l-64 -245q-64 21 -165 22q-148 0 -260.5 -77.5t-159.5 -209.5h532l-33 -160h-537q-8 -56 2 -130h510l-32 -159h-432q50 -133 163 -212.5t257 -79.5q98 0 192 29l51 -247 q-108 -38 -247 -38q-265 0 -457.5 150.5t-256.5 397.5h-145z" />
<glyph unicode="&#x2122;" horiz-adv-x="2097" d="M121 1308v175h817v-175h-308v-750h-198v750h-311zM994 558l74 925h186l189 -436l30 -88h4q12 52 27 88l192 436h186l69 -925h-199l-35 476l3 65h-5l-161 -372h-159l-163 372h-4l2 -65l-36 -476h-200z" />
<glyph unicode="&#x221e;" horiz-adv-x="1031" d="M117 729.5q0 165.5 117 282t282 116.5t282 -116.5t117 -282t-117 -283.5t-282 -118t-282 118t-117 283.5z" />
<glyph unicode="&#x2248;" d="M78 401q161 157 327 157q104 0 224.5 -73.5t189.5 -73.5q121 0 223 115l102 -157q-157 -157 -325 -156q-104 0 -224.5 73t-189.5 73q-112 1 -223 -114zM78 827q159 159 327 159q104 0 224.5 -73.5t189.5 -73.5q121 0 223 116l102 -157q-155 -159 -325 -158 q-104 0 -224.5 72.5t-189.5 72.5q-115 0 -223 -113z" />
<glyph unicode="&#x2260;" d="M100 279v205h347l155 224h-502v205h637l160 233l127 -83l-105 -150h203v-205h-337l-155 -224h492v-205h-625l-156 -229l-130 82l102 147h-213z" />
<glyph unicode="&#x2264;" d="M94 512v171l1005 447v-231l-725 -299v-4l725 -299v-233zM98 -177h1001v-205h-1001v205z" />
<glyph unicode="&#x2265;" d="M125 64v233l723 299v4l-723 299v231l1005 -447v-171zM125 -177h1001v-205h-1001v205z" />
<glyph unicode="&#x25fc;" horiz-adv-x="1064" d="M0 0v1065h1065v-1065h-1065z" />
<glyph unicode="&#xf8ff;" horiz-adv-x="2360" d="M88 458v580l263 148v316l554 296l279 -148l277 148l552 -296v-316l260 -148v-580l-260 -151v-317l-552 -295l-277 148l-279 -148l-554 295v317zM197 487l238 -134v-291l496 -263l253 139l247 -139l497 263v291l238 134v520l-238 137v285l-497 263l-247 -133l-253 133 l-496 -263v-285l-238 -137v-520zM299 512v470l207 121v257l449 238l229 -123l224 123l447 -238v-257l208 -121v-470l-208 -125v-253l-447 -238l-224 120l-229 -120l-449 238v253zM798 1151h135v-961h91v476h475v84h-475v401h415q36 0 48 -13.5t12 -47.5v-87h88v113 q0 62 -27 90t-93 28h-669v-83z" />
</font>
</defs>
</svg>
