<svg width="1920" height="1205" viewBox="0 0 1920 1205" fill="none" xmlns="http://www.w3.org/2000/svg">
<g clip-path="url(#clip0_552_4669)">
<rect width="1920" height="1205" fill="#4D3BC2"/>
<path d="M686.853 -725.06C684.744 -663.864 703.728 -603.723 698.455 -542.527C688.962 -445.457 618.299 -352.607 642.557 -258.702C662.596 -181.679 739.587 -131.034 760.681 -55.0661C783.884 27.2324 738.532 129.578 793.376 196.05C830.29 240.364 899.899 249.86 928.375 299.451C953.687 344.82 932.594 403.906 893.57 438.725C855.602 473.543 803.923 489.37 755.407 507.307C706.892 525.244 656.267 547.401 626.736 589.605C600.369 626.534 592.987 672.959 581.385 717.274C558.182 805.903 517.05 889.256 460.097 961.004C352.519 1096.06 187.989 1185.74 16.0764 1202.62C-44.0403 1208.95 -112.595 1202.62 -152.672 1158.31C-175.875 1131.93 -186.422 1096.06 -193.805 1061.24C-322.476 523.134 -326.695 -42.4049 -206.461 -580.511C-179.039 -703.958 -140.016 -833.737 -45.095 -917.09C55.0996 -1004.66 197.482 -1022.6 330.371 -1024.71C456.933 -1026.82 583.494 -1017.33 709.001 -997.279C745.915 -990.948 784.938 -982.507 808.141 -954.019C851.383 -899.153 793.376 -882.272 762.79 -859.059C715.329 -824.241 687.908 -787.312 686.853 -725.06Z" fill="#7D6BF2"/>
<path d="M204.24 -545.393C261.193 -504.244 312.872 -444.103 309.708 -374.466C307.599 -309.049 259.083 -242.577 288.614 -184.546C316.036 -131.791 386.7 -126.515 445.762 -127.57C504.824 -128.625 576.542 -119.129 599.745 -65.3187C634.549 16.9798 518.535 88.7272 511.152 177.356C507.988 214.285 523.808 250.159 532.245 286.033C539.628 321.906 536.464 367.276 504.824 387.323C466.855 411.591 417.285 384.158 371.934 385.213C312.872 387.323 267.521 442.189 253.81 500.22C241.154 557.196 252.755 617.337 263.302 675.368C275.958 745.005 285.45 822.028 248.536 883.224C207.404 950.751 124.084 977.129 47.0925 997.176C5.95998 1007.73 -38.3366 1019.33 -79.4691 1004.56C-141.695 982.405 -169.117 910.657 -184.937 847.351C-260.874 543.479 -250.327 224.836 -239.781 -88.5311C-233.452 -271.065 -231.343 -475.756 -155.406 -645.629C-126.93 -708.935 -80.5238 -758.525 -9.86023 -715.266C23.8895 -694.164 48.1472 -651.959 80.8423 -626.637C121.975 -594.983 165.217 -572.826 204.24 -545.393Z" fill="url(#paint0_linear_552_4669)"/>
<path d="M1496.39 350.592C1448.93 404.403 1416.23 483.536 1448.93 547.898C1479.51 609.094 1554.39 631.252 1615.57 661.85C1676.74 692.448 1737.91 758.92 1709.43 822.226C1692.56 860.21 1648.26 878.147 1608.18 892.919C1572.32 905.58 1537.52 918.241 1501.66 930.903C1455.25 947.784 1407.79 964.666 1369.83 996.319C1331.86 1027.97 1304.44 1077.56 1312.87 1126.1C1323.42 1187.29 1385.65 1227.39 1447.87 1233.72C1509.04 1238.99 1570.21 1217.89 1628.22 1197.85C1742.13 1156.7 1857.09 1115.55 1970.99 1074.4C2021.62 1056.46 2074.35 1036.41 2110.21 996.319C2155.56 945.674 2165.05 871.816 2164 804.289C2162.95 589.047 2087.01 375.915 1956.23 204.987C1897.17 127.964 1824.39 45.6659 1728.42 117.413C1685.17 150.122 1657.75 201.822 1618.73 240.861C1578.65 278.845 1533.3 309.443 1496.39 350.592Z" fill="#7D6BF2"/>
<path d="M1488.95 -110C1484.93 109.379 1428.75 210.374 1404 387.617C1397.98 431.091 1385.94 443.799 1359.86 398.987C1329.09 345.48 1325.75 282.609 1295.65 176.932C1281.61 127.438 1242.81 55.8722 1206.03 91.3207C1163.89 132.789 1214.05 244.485 1142.49 354.843C1035.47 520.047 1072.93 423.734 1141.15 552.82C1158.54 585.593 1183.96 643.782 1183.96 677.893C1183.96 748.79 1124.43 786.914 1052.86 786.914C950.53 786.245 788.002 665.854 798.035 716.686C804.723 750.128 965.245 954.792 1181.95 940.078C1311.7 931.383 1327.09 855.135 1410.69 852.46C1503.66 849.116 1529.08 1066.49 1658.16 917.337C1701.64 867.174 1711.67 917.337 1696.29 982.215C1682.91 1039.73 1678.23 1042.41 1771.87 1062.48C1846.11 1078.53 1845.44 1148.76 1888.24 1281.85C1885.57 1282.52 1780.56 1309.95 1771.2 1315.97C1713.68 1332.69 1735.08 1335.36 1711.67 1289.88C1648.13 1166.15 1636.76 1145.41 1604.66 1115.98C1577.9 1091.24 1531.75 1045.75 1563.86 1029.03C1568.54 1026.36 1618.7 1010.31 1600.64 1001.61C1566.53 984.89 1562.52 1006.29 1481.59 920.013C1379.26 811.661 1379.26 947.435 1202.68 970.176C1010.73 995.592 844.854 851.791 713.761 707.322C680.319 670.536 657.578 629.068 706.404 623.717C768.606 617.028 886.99 699.965 968.589 728.725C1067.58 763.504 1150.51 721.367 1108.38 624.386C1069.58 536.099 1028.78 528.742 1001.36 497.975C959.894 450.487 1059.55 425.74 1110.38 338.122C1185.96 209.036 1086.97 106.035 1124.43 -4.99221C1237.46 -37.7653 1212.72 -31.7458 1222.08 -30.4081C1282.27 -17.7002 1308.36 41.8266 1336.45 55.8722C1369.22 71.9243 1382.6 -35.09 1383.27 -74.5515C1382.6 -81.2399 1361.87 -73.2138 1488.95 -110Z" fill="url(#paint1_linear_552_4669)"/>
<path opacity="0.6" d="M-400.263 1110.5C-456.161 995.49 -408.7 844.609 -295.849 781.303C-273.701 768.642 -249.443 759.146 -226.24 749.65C-179.834 730.658 -136.592 713.776 -108.116 676.847C-92.2959 655.745 -82.8038 631.477 -74.3664 607.21C-64.8743 580.832 -54.3274 552.344 -35.3432 530.187C-11.0855 501.699 23.7189 486.927 57.4686 472.156C84.8903 460.55 112.312 447.888 135.515 429.952C196.686 379.306 203.015 300.173 208.288 215.764C212.507 156.678 216.725 95.4818 242.038 43.7815C261.022 4.74243 291.608 -27.9659 321.139 -59.6193C350.67 -90.2174 380.201 -122.926 399.185 -160.91C431.88 -227.382 426.607 -304.405 422.388 -378.262C420.279 -413.081 418.169 -448.955 419.224 -483.773C423.443 -576.623 455.083 -666.307 486.724 -753.881C499.38 -789.755 513.09 -827.739 524.692 -864.668C558.442 -975.454 579.535 -1130.56 491.997 -1241.34L496.216 -1244.51C585.863 -1132.67 563.715 -975.454 529.965 -863.612C518.364 -826.684 505.708 -788.7 491.997 -752.826C461.411 -666.307 428.716 -576.623 424.497 -484.828C423.443 -450.01 425.552 -414.136 427.661 -380.372C432.935 -305.46 438.208 -228.437 404.458 -159.855C385.474 -120.816 354.888 -88.1072 325.357 -57.5089C295.826 -25.8557 265.241 6.85278 246.256 44.8367C221.999 95.4819 216.725 156.678 213.561 214.709C207.233 300.173 201.96 380.361 138.679 432.062C115.476 451.054 86.9997 463.715 59.578 475.321C24.7736 490.093 -7.92154 504.864 -32.1792 532.297C-51.1634 553.399 -60.6555 580.832 -70.1476 607.21C-79.6398 631.477 -88.0772 657.855 -104.952 678.957C-134.483 716.941 -180.889 735.933 -225.186 753.87C-248.389 763.366 -272.646 772.862 -293.74 785.523C-403.427 847.775 -450.887 996.545 -396.044 1108.39L-400.263 1110.5Z" fill="#D9A2F3"/>
</g>
<defs>
<linearGradient id="paint0_linear_552_4669" x1="-29.1049" y1="-340.778" x2="693.232" y2="-106.833" gradientUnits="userSpaceOnUse">
<stop stop-color="#7D6BF2"/>
<stop offset="1" stop-color="#C861F9"/>
</linearGradient>
<linearGradient id="paint1_linear_552_4669" x1="987.399" y1="212.185" x2="1851.06" y2="693.245" gradientUnits="userSpaceOnUse">
<stop stop-color="#7D6BF2"/>
<stop offset="1" stop-color="#C861F9"/>
</linearGradient>
<clipPath id="clip0_552_4669">
<rect width="1920" height="1205" fill="white"/>
</clipPath>
</defs>
</svg>
